<?xml version="1.0" encoding="UTF-8"?>
<svg id="Layer_1" data-name="Layer 1" xmlns="http://www.w3.org/2000/svg" viewBox="0 0 534 661.92">
  <defs>
    <style>
      .cls-1 {
        fill: #f895d3;
      }

      .cls-2 {
        fill: #040403;
      }

      .cls-3 {
        fill: #fafbe8;
      }

      .cls-4 {
        fill: #fdc613;
      }

      .cls-5 {
        fill: #fff;
      }

      .cls-6 {
        fill: #fe6523;
      }

      .cls-7 {
        fill: #fdb700;
      }

      .cls-8 {
        fill: #fecd00;
      }

      .cls-9 {
        fill: #ff9365;
      }

      .cls-10 {
        fill: #a56a24;
      }

      .cls-11 {
        fill: #aa76f0;
      }

      .cls-12 {
        fill: #dbc8f7;
      }

      .cls-13 {
        fill: #36cc89;
      }
    </style>
  </defs>
  <path class="cls-2" d="M.77,458.06c.4-5.38,1.62-10.57,3.75-15.53,1.61-3.75,3.93-6.94,7.36-9.25,.43-.29,.94-.73,1.04-1.18,.77-3.5,3.3-5.35,6.27-6.75,1.14-.54,2.41-.81,3.84-1.28-.09-2,1.2-2.77,3.16-3.23,7.52-1.76,14.92-1.07,22.28,.85,11.23,2.93,21.54,7.95,31.4,13.96,10.32,6.29,19.94,13.58,29.63,20.77,4.49,3.33,9.03,6.61,13.55,9.9,.63,.46,1.3,.87,2.05,1.36,2.79-5.32,7.58-6,12.76-5.7,3.55,.2,6.88,1.31,10.29,2.88,.51-.71,1.04-1.39,1.51-2.1,7.74-11.56,15.52-23.09,24.15-34.01,14.49-18.32,30.67-34.98,48.81-49.71,1.34-1.09,2.07-2.32,2.36-3.96,1.47-8.41,1.5-16.86,.74-25.34-.51-5.57-1.47-11.06-2.83-16.55-.28,.07-.57,.06-.7,.19-7.17,7.63-14.48,15.15-20.6,23.7-.7,.97-1.38,1.96-2.07,2.94-1.81,2.56-3.22,5.26-4.06,8.34-3.31,12.29-10.93,21.89-19.65,30.74-2.09,2.11-4.55,3.79-7.35,4.86-4.24,1.63-8.36,.7-11.18-2.43-1.41-1.56-1.91-3.44-2.01-5.58-1.33,.4-2.52,.93-3.76,1.09-2.04,.26-4.13,.49-6.18,.35-2.74-.19-5.09-2.58-5.73-5.4-.16-.69-.25-1.39-.38-2.12-1.51,.12-2.93,.34-4.34,.33-5.21-.01-8.57-5.3-6.24-9.97,.77-1.53,1.97-2.91,3.19-4.14,6.11-6.12,12.85-11.53,19.61-16.9,.86-.68,1.72-1.37,2.91-2.31-2.69-.62-4.98-1.11-7.25-1.69-3.74-.97-7.31-2.33-10.36-4.78-2.22-1.78-4.08-3.81-4.57-6.79-.64-3.91,1.89-8.95,7.12-9.67,6.83-.94,13.36,.23,19.92,1.76,2.1,.49,4.24,.83,6.3,1.45,1.28,.38,2.1,.06,2.96-.83,3.99-4.15,8.22-8.09,11.98-12.43,7.34-8.45,14.44-17.11,21.61-25.71,1.22-1.47,2.29-3.07,3.59-4.81-1.72-2.58-3.43-5.14-5.22-7.81-1,.34-1.88,.68-2.78,.94-4.82,1.41-9.65,2.82-14.49,4.17-.83,.23-1.75,.3-2.61,.24-1.93-.14-2.96-1.77-2.22-3.59,.38-.94,1.01-1.81,1.64-2.62,3.69-4.73,7.4-9.43,11.11-14.13-2.45-2.04-3.76-4.79-5.14-7.46-.69-1.33-1.39-2.48-2.57-3.52-1.9-1.68-3.44-3.77-5.13-5.7-.47-.54-.91-1.12-1.47-1.82-6.89,.8-12.63-.93-15.49-8.26-2.33,.57-4.62,1.2-6.94,1.67-11.59,2.33-23.18,2.57-34.68-.47-8.87-2.35-16.12-7.28-21.7-14.56-11.12-14.51-15.56-30.92-13.66-49.08,1.31-12.54,5.75-23.86,13.5-33.82,1.91-2.45,4.12-4.66,6.36-7.18-.12-.35-.31-.94-.52-1.52-1.55-4.45-3.1-8.89-4.66-13.34-.78-2.23-.6-4.31,.55-6.45,2.23-4.15,5.19-7.67,8.59-10.86,4.92-4.61,10.33-8.57,16.05-12.12,.87-.54,1.84-.92,2.98-1.49,1.71-11.49,4.55-22.85,9.1-34.03-1.83-.96-3.61-1.99-5.47-2.85-6.22-2.9-12.47-5.74-18.71-8.61-.73-.33-1.45-.67-2.17-1.02-2.83-1.4-3.49-2.65-3.15-5.73,.74-6.61,2.96-12.73,6-18.59,2.45-4.71,5.34-9.09,9.18-12.81,2.67-2.58,5.64-4.69,9.04-6.2,4.1-1.81,8.26-3.41,12.65-4.36,1.31,0,2.63,0,3.94,0,1.68,2.22,3.69,4.26,4.98,6.68,3,5.63,5.85,11.36,8.39,17.21,2.51,5.77,4.58,11.74,6.96,17.92,1.97,.07,4.18,.18,6.39,.23,4.16,.1,8.31,.13,12.47,.26,2.39,.08,4.79,.25,7.17,.48,1.18,.11,2.11-.17,3.11-.83,8.89-5.85,18.47-10.13,28.89-12.39,8.37-1.81,16.77-2.24,25.2-.31,8.04,1.83,14.52,6.05,19.53,12.58,2.49,3.25,4.46,6.81,6.11,10.55,.39,.88,.76,1.75,1.11,2.55,25.87,1.84,46.02,13.04,58.38,36.17,11.31,21.16,10.94,42.73,.37,64.12,1.35,2.49,2.72,4.99,4.08,7.5,.19,.35,.27,.84,.55,1.05,2.16,1.56,2.54,4.15,3.68,6.29,2.4,4.51,4.68,9.09,7.02,13.63,.18,.35,.41,.68,.73,1.2,3.12-.26,6.28-.52,9.45-.77,.96-.08,1.91-.18,2.87-.17,1.17,0,1.96,.7,2.35,1.74,.37,.97,.21,1.92-.62,2.62-.98,.81-1.99,1.6-3.03,2.34-2.41,1.69-4.86,3.35-7.42,5.11,.17,.8,.31,1.56,.49,2.33,3.17,13.94,6.48,27.84,9.47,41.82,3.34,15.6,4.89,31.42,4.98,47.37,.01,1.99-.18,3.98-.29,6.09,6.6,3.34,13.42,6.22,20.62,8.13,6.87,1.82,13.75,3.61,20.33,6.33,5.04,2.08,9.98,4.38,14.05,8.09,1.93,1.76,3.76,3.74,5.2,5.91,3.34,5.07,2.78,9.26-1.42,13.52,.85,1.44,1.77,2.84,2.54,4.32,1.31,2.53,1.08,5.11-.1,7.62-1.09,2.31-3.09,3.36-5.35,3.69,.6,1.79,1.32,3.48,1.74,5.24,1.67,6.98-4.35,11.77-10.67,10.28-4.69-1.1-9.03-3.16-13.3-5.35-1.97-1.02-3.93-2.06-6.07-3.17-.27,2.29-.31,4.43-.81,6.46-.62,2.54-1.36,5.12-2.49,7.46-1.8,3.7-4.85,6.11-8.95,6.96-4.31,.9-8.17-1.37-9.14-5.64-.52-2.3-.55-4.76-.46-7.13,.18-4.91-.19-9.73-1.39-14.5-.35-1.38-1.02-2.17-2.25-2.8-2.69-1.38-5.29-2.92-8.09-4.49-9.56,26.88-24.4,50-47.24,67.51,1.04,3.14,2.7,5.86,4.84,8.25,5.4,6.04,11.26,11.61,17.99,16.14,7.71,5.2,16.41,8.14,25.4,10.24,3.41,.8,6.89,1.26,10.36,1.87,.91-1.25,1.6-2.43,2.52-3.39,1.26-1.31,2.67-2.49,4.06-3.67,1.45-1.23,2.88-2.49,4.43-3.58,6.57-4.59,14.03-6.82,21.84-8,6.4-.97,12.74-.62,18.97,1.29,.74,.23,1.58,.17,2.37,.17,5.8-.02,11.48,.96,17,2.62,7.36,2.21,12.73,7.03,16.9,13.43,2.72,4.19,3.68,8.62,2.86,13.48-.32,1.89-.74,3.76-1.14,5.64-4.12,19.35-12.45,36.87-23.53,53.11-4.28,6.27-9.03,12.21-13.56,18.3-.37,.5-.74,.99-1.3,1.74,.85,.06,1.44,.14,2.03,.15,21.98,.39,43.65,3.07,64.83,9.13,7.93,2.27,15.62,5.15,22.8,9.27,3.69,2.12,7.13,4.58,10.09,7.66,2.29,2.39,4.2,5.04,5.34,8.17,.4,1.11,.53,2.32,.78,3.48,.14,1.52,.29,3.03,.43,4.55v.96c-.13,.07-.35,.13-.37,.23-1.17,5.71-4.65,9.89-8.98,13.48-3.4,2.82-7.2,5.02-11.15,6.97-8.7,4.3-17.88,7.25-27.27,9.58-19.89,4.93-40.13,6.73-60.57,6.87-16.26,.11-32.42-1.05-48.47-3.58-10.11-1.59-20.07-3.81-29.75-7.18-8.64-3.01-16.89-6.8-24.12-12.52-2.58-2.04-5.01-4.23-6.82-7.03-3.59-5.55-4.02-11.33-1.23-17.32,1.72-3.7,4.38-6.65,7.51-9.21,.61-.5,1.22-1,1.78-1.46-2.65-9.64-1.65-16.02,.15-23.04,1.57-6.15,4.2-11.88,7-17.54,.98-1.97,1.96-3.94,2.92-5.88-1.34-.96-2.65-1.74-3.78-2.73-4.27-3.77-4.06-8.74,.47-12.24,.61-.47,1.25-.9,1.8-1.3-.04-.25-.04-.37-.07-.39-.59-.25-1.18-.48-1.77-.73-7.04-2.99-13.97-6.16-20.42-10.34-8.33-5.4-15.66-11.84-21.75-19.71-7.98-10.31-14.28-21.55-19-33.69-.74-1.91-1.44-3.84-2.07-5.52-6.5-.72-12.76-1.4-19.1-2.1-.44,.59-.93,1.22-1.39,1.86-20.94,28.83-37.63,60.07-52.23,92.47-2.62,5.81-4.69,11.87-6.86,17.87-.52,1.44-.8,2.89-2.16,3.46,.87,23.17-4.63,43.71-22.4,59.75,.35,.09,.56,.17,.78,.19,11.07,.98,22.05,2.55,32.93,4.83,8.68,1.82,17.26,4.02,25.42,7.59,3.74,1.64,7.33,3.55,10.49,6.19,1.86,1.55,3.47,3.31,4.55,5.5,1.8,3.64,1.8,7.2-.41,10.71-1.61,2.55-3.74,4.57-6.17,6.29-3.28,2.31-6.87,4.06-10.61,5.48-14.95,5.71-30.55,8.6-46.35,10.5-7.13,.86-14.31,1.35-21.47,2.01-1.16,0-2.33,0-3.49,0-1.39,.14-2.78,.27-4.17,.41h-30.71c-.93-.11-1.85-.22-2.78-.32-1.63-.03-3.26-.06-4.88-.08-6.05-.48-12.11-.92-18.16-1.45-11.23-.99-22.36-2.66-33.32-5.36-9.09-2.24-17.92-5.23-26.23-9.63-2.71-1.44-5.17-3.19-7.16-5.55-4.83-5.75-4.46-12.2,1.14-17.2,1.95-1.74,4.16-3.24,6.39-4.62,4.03-2.49,8.43-4.2,12.93-5.63,4.76-1.51,9.57-2.85,14.54-4.32-1.27-1.68-2.54-3.3-3.75-4.96-10.4-14.32-19.55-29.4-27.34-45.3-11.81-24.1-20.34-49.27-24.4-75.87-.31-2.05-.55-4.11-.77-6.18-.1-.87-.08-1.76-.11-2.64-.11-.98-.22-1.97-.32-2.95,.08-.22,.27-.45,.23-.64-.57-3.01-.41-6.02,.06-9.02,.11-.69,.01-1.41,.01-2.12ZM166.76,135.58c-.43,.2-.87,.4-1.3,.61-2.87,1.29-5.74,2.58-8.62,3.87-2.42-.24-3.05-.67-3.68-2.97-.9-3.3-1.6-6.65-2.55-9.93-.82-2.83-.27-5.16,1.99-7.07,.67-.42,1.37-.8,2.02-1.26,8.77-6.19,17.98-11.62,27.67-16.22,2.23-1.06,4.55-1.98,6.91-2.69,3.05-.91,4.37-.39,5.42,2.63,1.62,4.66,2.9,9.45,4.19,14.22,.52,1.92-.24,3.64-1.75,4.94-.72,.62-1.5,1.22-2.35,1.64-3.36,1.67-6.75,3.26-10.14,4.88-.61,.29-1.21,.58-1.82,.87,7.66,.74,13.85,4.3,19.47,9.1,3.36,2.87,6.23,6.19,8.86,9.73,.52,.85,1.05,1.69,1.57,2.54,.14-.09,.28-.18,.43-.27-.36-.77-.72-1.53-1.09-2.3-4.32-11.46-5.75-23.28-3.56-35.31,3.78-20.77,14.71-36.79,32.78-47.84,.44-.27,.83-.63,1.33-1.01-11.65-8-24.52-12.08-38.19-13.97-2.19-.36-4.37-.86-6.57-1.04-5.48-.45-10.97-.75-16.45-1.12-4.85-.1-9.71-.21-14.56-.29-.54,0-1.11,.11-1.63,.27-5.25,1.68-10.27,3.86-14.96,6.77-1.91,1.14-3.81,2.32-5.75,3.42-1.88,1.07-3.28,2.39-3.59,4.71-.16,1.16-.82,2.24-1.19,3.38-1.61,4.93-3.47,9.8-4.73,14.82-4.36,17.37-4.9,35.07-4.25,52.86,.02,.42,.22,.84,.36,1.35,1.33-.76,2.47-1.49,3.68-2.08,3.16-1.54,5.5-1.21,7.69,1.52,2.09,2.61,3.87,5.47,5.72,8.27,.7,1.06,1.3,2.21,1.78,3.39,.9,2.22,.51,3.51-1.35,5.02-1.54,1.25-3.08,2.5-4.8,3.89,2.56,.68,4.89,1.14,7.1,1.95,2.27,.84,4.4,2.02,6.46,2.99,.69-4.02,1.36-7.92,2.04-11.83,1.73-4.04,3.84-7.84,6.8-11.13,.31-.31,.62-.62,.93-.93,.07-.15,.14-.3,.22-.45-.18,.03-.35,.06-.53,.09Zm-73.68,75.62c-.07-.21-.13-.43-.03-.09-.27-.22-.1-.08,.07,.05-.13,1.28,.3,2.3,1.24,3.06,.17-.09,.33-.18,.5-.26-.59-.92-1.19-1.84-1.78-2.76Zm2.16,3.57c-.23-.1-.47-.2-.7-.29,.03,.27,.06,.53,.1,.8,3.68,7.93,8.48,14.99,15.69,20.14,1.42,1.01,2.98,1.88,4.57,2.59,4.7,2.12,9.67,3.28,14.77,3.84,10.55,1.18,20.87-.11,31.01-3.07,.37-.11,.65-.55,.98-.84-.61-1.01-1.14-1.89-1.67-2.76-1.75,.58-3.37,1.27-5.06,1.67-8.34,1.93-16.79,2.41-25.22,1.02-13.57-2.24-24.3-9.25-32.45-20.28-.69-.93-1.35-1.88-2.02-2.82Zm97.23,103c-2.78,3.18-5.55,6.35-8.33,9.53-3.96,4.16-7.92,8.31-11.88,12.47-.26,.18-.57,.32-.77,.55-1.94,2.18-4.26,2.4-6.97,1.68-3.62-.97-7.3-1.72-10.97-2.48-4.4-.92-8.83-1.39-13.33-.63-2.73,.46-4.02,2.96-2.51,5.31,.67,1.04,1.63,2.02,2.68,2.68,1.61,1.02,3.34,1.9,5.13,2.54,2.25,.81,4.58,1.41,6.91,1.92,2.26,.49,4.57,.72,6.85,1.1,1.28,.21,2.55,.46,3.02,1.95,.49,1.54-.28,2.62-1.31,3.59-.47,.44-1,.8-1.49,1.2-6.54,5.38-13.12,10.73-19.61,16.17-2.14,1.79-4.09,3.82-6.04,5.81-.79,.81-1.38,1.84-.67,3.03,.67,1.14,1.86,1.33,2.95,1.1,1.7-.37,3.46-.79,4.99-1.58,2.76-1.43,5.5-2.97,8.01-4.79,5.63-4.08,11.11-8.36,16.66-12.55,.7-.52,1.45-1,2.24-1.36,.9-.41,1.87-.12,2.35,.65,.42,.67,.59,1.61,.53,2.4-.04,.53-.61,1.13-1.09,1.49-7.64,5.66-15.26,11.34-23,16.86-1.4,1-2.05,2.16-2.37,3.65-.23,1.06,.18,2.01,1.33,2.18,1.31,.19,2.7,.35,4,.13,2.72-.45,5.1-1.82,7.39-3.3,4.59-2.96,8.65-6.57,12.55-10.37,.8-.78,1.57-1.6,2.42-2.32,1.02-.85,2.41-.83,3.29-.06,.96,.84,1.07,2.31,.23,3.47-.19,.26-.41,.49-.65,.7-4.09,3.57-8.14,7.19-12.3,10.67-1.14,.95-1.99,1.76-2.22,3.39-.55,3.79,1.87,6.06,5.52,4.92,2.67-.83,4.86-2.44,6.79-4.37,5.62-5.62,10.49-11.85,14.3-18.84,1.14-2.09,1.99-4.36,2.78-6.61,.95-2.7,1.7-5.46,2.54-8.2,1.69-2.41,3.3-4.88,5.1-7.2,3.06-3.97,6.24-7.86,9.38-11.78,.15-.19,.29-.38,.44-.58,4.59-4.86,9.18-9.72,13.93-14.74-2.98-10.02-7.24-19.72-12.77-29.1-2.01,2.55-3.81,4.88-5.67,7.17-3.43,4.2-6.89,8.37-10.35,12.55Zm27.33-154.91c-.24-.35-.48-.71-.72-1.06-.13,.08-.26,.17-.38,.25,.28,.58,.56,1.16,.84,1.74,2.48,7.13,3.47,14.41,2.13,21.9-1.32,7.41-4.68,13.71-10.54,18.51-5.35,4.37-11.49,6.22-18.33,4.65-3.08-.71-6.03-1.98-9.03-2.99-1.18-.75-2.36-1.5-3.78-2.4-.04,12.56-4.72,21.83-17,26.23,.51,1.09,.96,2.05,1.39,2.98,2.02-1.45,3.74-2.88,5.65-3.99,1.99-1.15,4.17-1.98,6.27-2.97,4.1-1.93,8.21-3.87,12.31-5.8,.23-.05,.49-.06,.69-.16,9.36-4.65,18.55-9.56,26.99-15.8,2.29-1.69,4.78-3.19,7.35-4.43,4.05-1.95,8.05-1.52,11.78,1.03,1.05,.72,2.04,1.52,3.06,2.29,1.22,1.67,2.25,3.43,2.5,5.54,.06,3.32-1.14,6.21-2.98,8.9-2.28,3.32-5.07,6.17-8.39,8.4-4.62,3.1-9.34,6.05-14.08,8.96-2.84,1.75-5.8,3.31-8.7,4.95-.22,.08-.45,.15-.66,.26-7.54,3.99-14.9,8.33-23.06,11.03-.13,.04-.22,.22-.47,.48,1.12,1.28,2.35,2.53,3.4,3.92,1.04,1.37,2.23,1.73,3.92,1.43,4.08-.72,8.2-1.2,12.3-1.87,3.45-.56,6.89-1.25,10.33-1.89,.79-.1,1.58-.15,2.36-.32,16.64-3.6,32.52-9.46,47.66-17.09,15.02-7.57,28.95-16.95,41.6-28.11,4-3.53,7.68-7.43,11.51-11.16,.19-.14,.41-.25,.56-.42,6.35-6.78,11.84-14.24,17.12-21.86,1.45-2.09,2.64-4.35,3.97-6.56-.98-1.91-1.91-3.76-2.86-5.6-.18-.35-.44-.65-.78-1.14-.62,.88-1.16,1.65-1.71,2.41-9.05,12.71-20.92,21.59-35.83,26.29-7.85,2.47-15.92,3.27-24.11,2.94-.3-.08-.6-.2-.91-.22-8.6-.42-16.72-2.65-24.48-6.3-.56-.26-1.18-.38-1.78-.56-1.12-.73-2.22-1.51-3.37-2.18-8.74-5.12-15.85-11.99-21.72-20.2Zm144.28,93.93c-.68-4-1.35-7.99-2.03-11.99-.18-1.1-.3-2.21-.55-3.3-2.88-12.67-5.77-25.34-8.66-38.01-.31-1.38-.68-2.74-1.09-4.39-2.63,1.54-5.01,2.94-7.39,4.34-2.23,.86-4.24,1.95-5.86,3.86-1.88,2.23-4.06,4.22-6.04,6.25,1.56,2.79,3.1,5.31,4.39,7.96,.79,1.63,1.36,3.42,1.68,5.19,.34,1.85-.81,3.07-2.68,3.21-.7,.05-1.44-.04-2.13-.19-4.21-.91-8.44-1.75-12.6-2.85-1.79-.47-3.23-.28-4.7,.76-5.8,4.1-11.61,8.19-17.45,12.23-1.21,.83-1.47,1.72-1.3,3.2,.64,5.63,1.08,11.28,1.54,16.92,.06,.7-.11,1.44-.29,2.13-.61,2.26-2.26,3.01-4.42,2.01-.86-.4-1.66-.95-2.49-1.42-4.14-2.37-8.29-4.74-12.13-6.94-1.28,.69-2.25,1.21-3.21,1.72-.14,.08-.29,.14-.43,.2-7.85,3.71-15.71,7.41-23.55,11.14-.33,.16-.6,.52-.8,.84-2.44,4.12-4.86,8.24-7.28,12.37-1.22,1.77-2.4,3.57-3.67,5.31-.7,.96-1.44,1.94-2.33,2.71-2.01,1.73-4.07,1.15-4.78-1.37-.39-1.37-.49-2.82-.66-4.25-.25-2.11-.43-4.23-.64-6.27-8.68,2.54-17.18,5.04-25.83,7.57,.37,.59,.56,.94,.78,1.26,4.32,6.45,8.16,13.17,11.44,20.22,.2,.42,.51,.79,.77,1.19,.81,2.06,1.73,4.09,2.42,6.19,2.09,6.32,4.1,12.66,6.14,19,.16,.86,.3,1.72,.47,2.58,2.02,10.29,3.11,20.64,2.16,31.14-.15,1.69-.25,3.38-.39,5.39,1.04-.73,1.81-1.28,2.58-1.82,6.31-4.32,12.61-8.67,18.95-12.94,2.19-1.47,2.91-1.3,4.69,.62-.09,.76-.18,1.53-.27,2.29-.32,.24-.61,.51-.95,.71-11.03,6.73-21.33,14.47-31.31,22.64-.79,.64-1.46,1.43-2.18,2.16-.58,.39-1.22,.72-1.73,1.18-3.81,3.39-7.63,6.76-11.37,10.23-7.37,6.82-14.3,14.06-20.82,21.7-6,6.57-11.4,13.62-16.89,20.95,1.19,.21,2.05,.27,2.85,.52,4.02,1.24,8.03,2.52,12.04,3.79,.21,.12,.4,.26,.62,.35,11.57,5.02,20.44,13.2,27.49,23.51,.3,.44,.65,.86,1.04,1.38,.37-.58,.69-1.04,.96-1.52,15.95-28.4,35.03-54.57,56.27-79.2,.42-.48,.82-1,1.31-1.4,1-.82,2.36-.74,3.28,.11,.88,.81,1.05,1.93,.38,3.04-.33,.54-.78,1.01-1.19,1.5-2.23,2.71-4.46,5.43-6.68,8.14-.13,.09-.29,.16-.38,.28-5.32,6.69-10.64,13.37-15.94,20.07-.22,.27-.3,.65-.44,.95,.3,.18,.43,.3,.57,.32,7.83,1.29,15.71,1.83,23.61,.98,3.05-.33,6.04-1.16,9.06-1.77,.7-.11,1.42-.15,2.1-.33,14.65-4.05,27.01-11.95,37.74-22.57,.24-.21,.5-.4,.72-.62,15.54-15.75,26.58-34.25,33.66-55.16,.12-.35,.08-.76,.12-1.16-6.25-4.45-12.42-8.86-18.61-13.24-12.59-8.93-24.81-18.33-36-29-5.5-5.24-10.93-10.55-15.34-16.78-.66-.93-.93-2.14-1.39-3.23,1.67-2.53,3.16-2.58,4.98-.27,2.02,2.56,4.01,5.17,6.22,7.58,10.39,11.34,22.13,21.15,34.4,30.35,.5,.37,1.1,.61,1.65,.91,.64,.58,1.22,1.23,1.91,1.73,7.58,5.41,15.15,10.84,22.79,16.18,2.99,2.09,6.12,3.97,9.19,5.94,2.21,1.26,4.38,2.61,6.64,3.76,1.48,.75,2.31,1.78,2.77,3.36,1.81,6.21,2.38,12.53,2.02,18.97-.07,1.34-.05,2.73,.25,4.03,.56,2.42,2.28,3.21,4.54,2.2,1.79-.8,3.34-2.01,4.24-3.75,2.28-4.43,3.37-9.09,2.34-14.11-.24-1.2-.19-2.55,.09-3.74,.39-1.67,2.12-2.22,3.63-1.36,.34,.2,.64,.48,.97,.71,5.77,3.95,12.1,6.82,18.54,9.42,1.49,.6,3.27,.71,4.91,.67,1.68-.04,2.35-.94,2.59-2.6,.28-2.03-.25-3.91-1.58-5.36-1.93-2.11-3.88-4.33-6.22-5.9-5.3-3.55-10.86-6.72-16.31-10.05-.47-.29-1.01-.5-1.43-.85-.88-.73-1.22-1.69-.75-2.79,.46-1.08,1.36-1.61,2.5-1.43,.85,.13,1.75,.38,2.48,.82,5.12,3.1,10.22,6.25,15.3,9.42,1.51,.94,2.69,2.54,4.83,2.08,.39-.08,.87,.35,1.33,.48,.69,.19,1.39,.4,2.09,.44,1.43,.07,1.86-.32,2.07-1.72,.23-1.5-.18-2.83-1.11-4.04-1.97-2.56-4.33-4.69-6.94-6.57-3.78-2.73-7.91-4.81-12.14-6.72-.65-.29-1.34-.56-1.92-.97-.98-.68-1.29-1.96-.84-2.99,.49-1.1,1.78-1.69,3-1.34,.38,.11,.74,.29,1.11,.46,5.16,2.38,10.28,4.82,14.83,8.27,1.08,.82,2.27,1.11,3.3,.4,1.04-.71,1.38-2.02,.91-3.24-.48-1.26-1.06-2.51-1.81-3.62-2.19-3.25-5.25-5.55-8.59-7.51-5.41-3.18-11.28-5.24-17.26-7.03-6.65-1.99-13.4-3.72-19.91-6.08-16.11-5.83-29.91-15.38-42.27-27.12-4.18-3.97-8.07-8.21-11.29-13.02-.89-1.33-1.97-2.53-2.77-3.9-.8-1.37-.47-2.7,.58-3.43,1.04-.72,2.38-.51,3.44,.56,.28,.28,.51,.61,.77,.91,1.07,1.54,2.06,3.15,3.24,4.6,1.97,2.44,4.07,4.78,6.12,7.16,7.74,8.18,16.41,15.19,26.06,21,.44,.27,.96,.4,1.68,.7,0-1.13,0-2.01,0-2.88,.07-10.49-.65-20.93-2.14-31.32Zm-39.79,172.83c-4.2-4.35-8.49-8.62-10.95-14.58-12.05,8.53-25.47,12.43-39.81,13.46,0,.46-.06,.71,0,.91,2.79,7.58,6.01,14.97,10.28,21.86,7.97,14.06,18.18,25.98,32.58,33.99,13.93-10.7,22.11-24.81,25.32-42-.55-.38-.92-.67-1.32-.9-3.76-2.15-7.18-4.76-10.39-7.65-1.9-1.7-3.81-3.39-5.71-5.08Zm8.93,143.17c-.19-.04-.39-.08-.58-.12,.09,.17,.18,.35,.27,.52,3.07,6,7.64,10.54,13.42,13.94,2.76,1.62,5.68,2.01,8.77,1.63,3.6-.44,7-1.53,10.33-2.92,9.61-4,18.13-9.8,26.08-16.39,21.38-17.71,38.96-38.73,53.25-62.48,8.63-14.35,14.65-29.76,17.51-46.34,.55-3.19,.46-6.22-1.35-9-1.22-1.87-2.41-3.79-3.86-5.47-4.46-5.17-11.84-8.63-17.78-8.58,1.21,1.99,2.59,3.95,3.65,6.07,2.38,4.74,3.09,9.89,3.17,15.12,.14,9.06-1.8,17.78-4.92,26.23-4.56,12.36-11.04,23.73-18.36,34.64-9.57,14.27-20.46,27.42-33.53,38.64-7.43,6.38-15.41,11.95-24.62,15.49-10.61,4.08-21.14,4.62-31.46-1Zm-210.19,35.03c.03-12.49-2.28-24.64-5.29-36.68-5.16-20.65-13.08-40.24-22.83-59.11-8.75-16.96-18.84-33.05-31.01-47.79-6.28-7.6-13.09-14.69-21.12-20.49-4.89-3.53-10.06-6.62-15.98-8-7.88-1.84-13.5,1.02-16.81,6.87-.94,1.66-1.69,3.45-2.29,5.26-1.96,5.92-2.34,12.09-2.24,18.24,.19,11.47,1.99,22.74,4.81,33.86,6.63,26.12,16.68,50.83,30.28,74.08,9.39,16.05,19.88,31.31,32.94,44.67,4.82,4.93,9.9,9.54,15.72,13.29,4.13,2.66,8.54,4.62,13.36,5.74,6.5,1.5,13.41-1.86,16.26-7.58,1.03-2.06,1.88-4.24,2.52-6.45,1.51-5.19,1.71-10.55,1.67-15.92ZM293.73,184.84c29.26-8.61,51.15-38.28,44.71-72.29-4.44-23.46-18.47-39.63-40.7-48.35-7.44-2.92-15.18-4.67-23.39-3.23-8.72,1.53-16.57,4.95-23.22,10.63-13.74,11.76-21.34,26.84-22.13,44.92-.83,18.93,5.48,35.39,19.02,48.76,11.52,11.36,25.6,17.16,41.72,18,1.58,.08,2.98,.37,3.98,1.55Zm45.96,332.56c-.69,1.08-1.45,2.03-1.93,3.09-2.38,5.24-4.82,10.45-6.96,15.78-1.76,4.39-2.69,9.05-2.94,13.78-.28,5.33,.64,10.42,4.1,14.67,4.57,5.62,10.87,7.36,17.77,7.19,7.43-.19,14.23-2.69,20.65-6.31,8.42-4.75,15.94-10.69,22.74-17.5,12.84-12.86,23.58-27.36,32.89-42.92,5.77-9.64,10.57-19.72,13.18-30.73,1.77-7.45,2.63-14.97,1.22-22.58-1.53-8.32-6.22-13.84-14.54-16.05-4.61-1.22-9.29-1.43-14.02-1.01-7.36,.65-14.24,2.81-20.59,6.59-.72,.43-1.35,.99-2.14,1.58,2.85,3.36,3.3,7.23,3.05,11.06-.31,4.61-.95,9.23-1.91,13.74-2.72,12.75-9.16,23.61-17.64,33.33-.78,.9-1.13,1.75-1.26,2.94-.15,1.47-.54,3.01-1.24,4.3-3.14,5.85-8.26,8.92-14.67,10.05-5.22,.92-10.34,.35-15.76-1.02Zm-218.9,119.02c9.84-1.08,18.15-4.63,25.18-11,3.58-3.24,6.72-6.9,8.18-11.64,.98-3.18,2-6.43,.57-9.79-.14-.32-.11-.86,.07-1.14,.92-1.4,.67-2.93,.54-4.41-1.02-11.57-2.97-22.98-6.43-34.08-6.23-20-15.92-38.36-27.52-55.65-14.21-21.18-31.83-39.38-50.98-56.12-7.66-6.69-15.85-12.68-24.86-17.47-4.96-2.63-10.1-4.79-15.65-5.81-2.81-.52-5.64-.65-8.38,.68,9.02-.08,16.25,4.3,23.25,9.19,7.31,5.11,13.73,11.23,19.65,17.88,8.54,9.58,15.86,20.05,22.58,30.96,16.5,26.76,29.21,55.14,36.55,85.8,2.8,11.69,4.7,23.52,4.51,35.58-.15,9.43-1.23,18.68-7.25,27.02ZM34.53,425.14c2.09,.74,4.21,1.41,6.26,2.24,8.58,3.49,16.24,8.53,23.62,14.05,11.51,8.59,21.76,18.55,31.72,28.85,15.13,15.63,28.74,32.39,39.13,51.62,5.54,10.27,11.12,20.51,15.16,31.5,4.95,13.49,8.4,27.31,9.46,41.68,.07,.99,.25,1.97,.39,3.07,14.88-10.14,24.15-38.61,20.31-56.74-.42-.15-.86-.33-1.31-.48-4.94-1.67-9.65-3.83-14.04-6.66-8.61-5.54-15.4-12.72-19.48-22.19-1.48-3.43-2.79-6.88-4.89-10.02-1.72-2.58-2.99-5.46-4.41-8.24-3.62-7.07-7.94-13.68-13.13-19.71-.36-.42-.79-.85-.98-1.35-.41-1.13-1.28-1.76-2.2-2.42-3.58-2.55-7.11-5.16-10.68-7.73-9.48-6.8-18.82-13.8-28.48-20.34-9.83-6.65-20.38-11.98-31.86-15.26-4.77-1.36-9.6-2.4-14.59-1.89Zm114.49,81.91c6.27,16.28,18.73,25.03,34.6,30.08,7.64-21.75,18.3-41.84,28.79-61.84-6.81-12.44-18.42-22.51-31.4-27.2-4.34-1.57-8.74-3.02-13.69-2.48-4.83,7.11-9.71,14.28-14.51,21.35,3.17,2.2,6.11,4.1,8.91,6.22,2.5,1.89,3.62,4.62,3.81,7.7,.08,1.29,.01,2.58,.01,3.99,.25-.19,.63-.35,.82-.63,3.49-5.36,7.02-10.69,10.39-16.11,1.72-2.76,2.77-3.23,5.57-1.6,1.38,.8,2.65,1.78,3.96,2.69,.84,.58,1.66,1.19,2.51,1.81,2.75-2.33,5.34-4.58,7.99-6.77,1.72-1.42,2.78-1.43,4.45,0,1.09,.93,2.1,1.97,3.05,3.04,.89,1.01,.82,2.36,0,3.28-.85,.95-2.01,1.09-3.24,.27-.77-.52-1.45-1.17-2.22-1.8-1.9,1.63-3.81,3.11-5.46,4.74,1.51,1.4,2.9,2.49,4.05,3.8,1.14,1.29,1.07,2.25,.04,3.67-5.48,7.57-10.98,15.13-16.49,22.67-1.21,1.65-2.52,2.01-4.4,1.25-.59-.24-1.14-.57-1.69-.89-4.78-2.84-9.44-5.86-13.82-9.49-3.15,4.86-7.16,8.82-12.02,12.25Zm-29.01-327.83c-1.76,1.58-3.47,1.75-5.22,.59-4.5-2.99-7.92-6.92-10.12-11.87-.79-1.79-.83-3.62,.21-5.3,1.47-2.37,2.91-4.78,4.64-6.96,4.59-5.77,9.88-10.88,15.4-15.75,.87-.77,1.35-1.5,1.02-2.67-.17-.59-.19-1.21-.31-2.01-2.82,.29-5.25,1.29-7.53,2.57-9.31,5.22-16.69,12.38-21.12,22.18-5.68,12.54-6.8,25.74-3.18,38.88,4.85,17.61,16.37,29.14,34.32,33.6,7.62,1.89,15.39,1.44,23.08,.04,2.09-.38,4.22-.7,6.24-1.94-2.13-.46-4.11-.73-5.97-1.32-4.82-1.53-8.89-4.32-12.45-7.86-9.22-9.17-14.8-20.32-17.61-32.91-.65-2.93-.91-5.95-1.4-9.27ZM162.73,42.95c-4.69-13.16-9.4-26.12-17.29-37.67-4.83,1.01-9.38,2.27-13.49,4.62-2.34,1.34-4.67,2.88-6.55,4.78-6.2,6.26-10.24,13.84-12.53,22.33-.55,2.06-.83,4.19-1.25,6.39,1.73,.81,3.24,1.51,4.75,2.22,6.66,3.12,13.34,6.17,19.94,9.41,1.54,.76,2.55,.63,3.88-.33,4.54-3.29,9.39-6.08,14.5-8.4,2.54-1.15,5.15-2.15,8.04-3.35Zm17.2,118.9c1.23,2.89,2.58,5.54,3.51,8.32,3.14,9.32,3.09,18.23-3.89,26.07-.05,.05-.04,.15-.09,.37,3.56,3.2,7.59,5.65,12.3,6.98,7.29,2.05,13.44,.09,18.48-5.35,4.65-5.02,6.81-11.14,7.04-17.91,.33-9.8-3.16-18.45-8.31-26.58-.64-1.01-1.41-1.1-2.42-1-9.56,.91-18.28,4.25-26.62,9.1Zm140.98,326.14c3.4,1.6,6.4,3.07,9.46,4.43,10.89,4.86,22.28,7.18,34.23,6.88,2.32-.06,3.84-.85,5.28-2.55,8.83-10.42,14.69-22.2,16.7-35.78,.33-2.25,.45-4.53,.68-6.94-14.37-.02-27.91-2.52-40.89-8.5-3.59,17.12-11.66,31.35-25.47,42.45ZM247.66,67.11c-.56,.23-1.15,.42-1.69,.71-5.79,3.16-11.09,7.02-15.53,11.91-16.64,18.3-22.08,39.38-14.97,63.26,7.62,25.58,32.47,44.11,59.75,44.46,1.04,.01,2.09-.16,3.43-.26-27.44-6.94-45.41-23.58-52.4-50.59-7.02-27.15,1.39-50.2,21.42-69.48Zm-106.46,119.9c9.41,10.24,10.43,21.6,4.91,34.01,1.6,.92,3.07,1.87,4.63,2.63,5.15,2.5,10.21,2.13,15.08-.76,5.34-3.17,8.07-8.08,8.79-14.1,.37-3.13,.3-6.32,.43-9.43-5.87-5.6-10.08-12.22-13.27-19.68-7.27,1.21-14.33,2.7-20.57,7.33Zm32.64,60.42c1.19-.15,2.39-.24,3.56-.46,5.22-.98,10.16-2.85,14.81-5.36,8.92-4.82,17.86-9.64,26.6-14.78,4.18-2.46,8.02-5.53,11.82-8.56,2.46-1.96,4.16-4.59,5.06-7.7,.4-1.37,.19-2.5-.54-3.63-2.01-3.09-6.69-4.44-9.95-2.77-1.49,.76-2.91,1.68-4.27,2.65-13.14,9.36-27.25,16.93-42.12,23.16-3,1.26-5.84,2.94-8.68,4.56-1.63,.93-2.8,2.38-3.54,4.12-1.17,2.74-.39,5.45,2.04,7.21,1.55,1.13,3.32,1.51,5.21,1.57Zm29.49-203.05c5.02,.98,9.61,1.92,14.22,2.75,.7,.13,1.53-.16,2.23-.43,3.57-1.39,7.09-2.9,10.67-4.25,5.87-2.22,11.35-1.31,16.21,2.58,2.23,1.79,4.26,3.86,6.22,5.95,1.96,2.09,3.73,4.35,5.53,6.46,4.62-.7,9.15-1.39,13.94-2.13-1.38-3.24-2.97-6.24-4.89-9.08-3.14-4.65-7.34-7.96-12.5-10.08-5.33-2.19-10.9-3.06-16.64-2.76-5.92,.31-11.72,1.41-17.4,3.1-6.06,1.81-11.85,4.24-17.6,7.88Zm1.36,103.45c-5.12-6.16-10.73-10.75-18.08-12.82-2.4-.68-4.86-.77-7.36-.4-5.03,.74-8.11,4.11-10.76,7.94-3.59,5.19-4.58,11.17-4.74,17.33-.05,2.03,.14,4.07,.24,6.56,12.36-9.24,25.22-16.28,40.7-18.61Zm-57.97,354.21c.46-.11,.64-.1,.76-.18,6.29-4.41,10.77-10.15,12.76-17.66,.97-3.67,.17-6.16-3.01-8.3-4.23-2.85-8.57-5.56-13.35-7.46-2.7-1.08-5.48-1.64-8.41-1.5-3.13,.15-5.64,1.06-6.36,4.56-.08,.38-.27,.73-.43,1.15,.38,.54,.72,1.08,1.11,1.58,3.2,4,6.12,8.17,8.51,12.71,2.01,3.81,4.04,7.61,6.1,11.39,.71,1.31,1.57,2.54,2.3,3.71Zm-19.35-310.07c.33-.04,.43-.02,.48-.06,.68-.66,1.36-1.33,2.03-2.01,7.03-7.07,15.16-12.14,25.12-13.92,1.62-.29,3.2-.79,4.91-1.23-.43-1.88-.83-3.57-1.19-5.27-.28-1.32-.88-2.26-1.92-3.28-3.81-3.7-8.41-5.31-13.51-6.02-3.75-.52-7.15,.36-10.2,2.5-4.87,3.42-7.5,8.2-7.87,14.12-.33,5.16,.67,10.15,2.15,15.17Zm-1.07-91.23c-1.39,.85-2.45,1.38-3.37,2.08-3.25,2.46-6.6,4.82-9.62,7.54-2.66,2.39-4.93,5.21-7.35,7.86-2.3,2.52-3.05,5.26-1.41,8.52,.78,1.55,1.12,3.32,1.71,4.98,.73,2.02,1.51,4.01,2.33,6.15,2.57-1.64,4.98-3.17,7.37-4.69-.37-2.07-.76-4.1-1.08-6.13-.26-1.62,.2-3,1.54-4.03,1.2-.93,2.37-1.9,3.57-2.83,1.88-1.46,3.78-2.91,5.49-4.23,.27-5.05,.53-9.84,.82-15.21Zm54.37,370.66c-4.75,7.31-9.35,14.37-14.03,21.56,3.65,2.59,7.03,5.05,10.66,6.95,5.1-6.87,10.02-13.51,15.1-20.35-3.91-2.72-7.69-5.35-11.73-8.16Zm185.75,32.88c-.7-.09-.94-.16-1.17-.15-7.69,.34-15.27-.45-22.77-2.2-.45-.1-.97-.19-1.38-.07-1.75,.53-3.52,1.05-5.2,1.76-1.4,.59-2.86,1.39-3.02,3.1-.17,1.81,1.36,2.59,2.65,3.36,6.26,3.74,13.08,4.44,20.09,3.26,3.98-.67,7.26-2.83,9.5-6.31,.49-.77,.79-1.66,1.31-2.77Zm-72.28-246.21c-.25-7.96-1.36-15.34-2.78-22.9-1.26,.1-2.38,.04-3.44,.29-3.24,.78-6.09,2.41-8.52,4.64-2.36,2.16-3.44,4.9-3.01,8.1,5.86,3.26,11.61,6.46,17.75,9.87Zm-82.19,16.96c.39-3.9-1.64-7.46-5.08-9.02-2.84-1.29-5.53-.6-7.46,1.88-3.82,4.92-7.66,9.84-11.49,14.76-.43,.56-.83,1.13-1.48,2.02,9.11-2.38,17.49-5.58,25.51-9.62Zm40.13-16.34c-4.1-2.52-8.13-2.92-12.3-1.13-2.21,.95-3.56,2.56-3.35,5.22,.34,4.21,.54,8.43,.85,12.65,.16,2.24,.42,4.47,.63,6.7,5.36-7.47,10.07-15.11,14.17-23.44Zm61.23-38.59c6.44,1.43,12.7,2.82,19.34,4.29-3.19-6.5-6.72-12.23-10.99-17.58-3.06,1.7-5.34,4.04-7.23,6.71-1.33,1.87-1.65,4.1-1.12,6.58ZM225.95,49.55c.66,.32,1.05,.54,1.46,.71,5.8,2.31,11.45,5,16.59,8.51,2.9,1.98,5.43,2.64,8.44,.74,.18-.12,.36-.23,.77-.49-3.45-4.22-6.78-8.37-11.34-11.32-1.72-1.11-3.7-1.5-5.74-1.36-3.57,.25-6.74,1.74-10.18,3.2Zm129.66,140.53c-2.3,.18-4.6,.36-6.9,.53-2.95,.21-5.9,.41-8.85,.61-.81,.05-1.53,.15-1.99,1.02-1.29,2.39-.97,6.06,.84,8.31,5.94-2.88,11.62-6.23,16.9-10.47ZM125.5,122.26c-2.08,1.59-3.86,2.95-5.76,4.41,.32,1.52,.62,2.94,.95,4.46,1.8-.41,3.33-.75,4.81-1.08v-7.78ZM386.9,448.85c-.66-1.12-1.12-1.9-1.75-2.98-1.03,1.07-1.82,1.89-2.89,2.98h4.64Z"/>
  <path class="cls-10" d="M.77,458.06c0,.71,.1,1.43-.01,2.12-.47,3.01-.63,6.01-.06,9.02,.04,.19-.15,.43-.23,.64-.15,.03-.31,.05-.46,.07C0,465.92,0,461.92,0,457.92c.26,.05,.52,.09,.77,.14Z"/>
  <path class="cls-12" d="M0,469.92c.16-.02,.31-.04,.46-.07,.11,.98,.22,1.97,.32,2.95-.26,0-.53,0-.79,0v-2.88Z"/>
  <path class="cls-12" d="M106.99,661.92c0-.14,0-.27,.02-.41,1.63,.03,3.26,.06,4.88,.08-.14,.08-.17,.18-.1,.32h-4.8Z"/>
  <path class="cls-11" d="M147.58,.42c-1.32,0-2.63,0-3.94,0-.04-.15-.11-.28-.18-.42h4.32c-.08,.13-.14,.27-.19,.42Z"/>
  <path class="cls-10" d="M145.37,661.92c1.39-.14,2.78-.27,4.17-.41-.01,.16,.04,.3,.15,.41h-4.32Z"/>
  <path class="cls-12" d="M149.69,661.92c-.11-.11-.16-.25-.15-.41,1.16,0,2.33,0,3.49,0,.02,.14,.02,.28,.02,.42h-3.36Z"/>
  <path class="cls-10" d="M111.79,661.92c-.07-.14-.04-.25,.1-.32,.93,.11,1.85,.22,2.78,.32h-2.88Z"/>
  <path class="cls-8" d="M244.59,282.04c2.43-4.12,4.85-8.25,7.28-12.37,.19-.33,.47-.69,.8-.84,7.84-3.73,15.7-7.43,23.55-11.14,.14-.07,.29-.13,.43-.2,.97-.52,1.93-1.04,3.21-1.72,3.84,2.2,7.98,4.57,12.13,6.94,.83,.48,1.63,1.02,2.49,1.42,2.15,1,3.81,.24,4.42-2.01,.18-.69,.35-1.43,.29-2.13-.47-5.64-.9-11.29-1.54-16.92-.17-1.48,.1-2.37,1.3-3.2,5.84-4.04,11.65-8.13,17.45-12.23,1.47-1.04,2.91-1.23,4.7-.76,4.16,1.09,8.39,1.93,12.6,2.85,.69,.15,1.43,.24,2.13,.19,1.87-.14,3.02-1.36,2.68-3.21-.33-1.78-.9-3.57-1.68-5.19-1.28-2.65-2.83-5.17-4.39-7.96,1.99-2.03,4.16-4.01,6.04-6.25,1.61-1.91,3.62-3.01,5.86-3.86,1.52,1.5,1.58,3.59,2,5.46,.71,3.15,1.06,6.39,1.6,9.58,.59,3.47,.59,6.93,0,10.4-.39,2.34-.74,4.68-1.1,7.02-1.34,.13-2.71,.14-4.02,.43-8.88,1.94-14.11,9.92-13.77,16.91,.07,1.43,.04,2.87,.05,4.3-.26-.31-.49-.63-.77-.91-1.06-1.07-2.4-1.28-3.44-.56-1.05,.72-1.38,2.06-.58,3.43,.8,1.37,1.89,2.57,2.77,3.9,3.22,4.81,7.1,9.05,11.29,13.02,12.36,11.74,26.16,21.29,42.27,27.12,6.52,2.36,13.26,4.09,19.91,6.08,5.98,1.79,11.85,3.84,17.26,7.03,3.34,1.96,6.4,4.25,8.59,7.51,.75,1.11,1.33,2.36,1.81,3.62,.47,1.23,.13,2.54-.91,3.24-1.04,.71-2.23,.41-3.3-.4-4.55-3.45-9.67-5.9-14.83-8.27-.36-.17-.72-.35-1.11-.46-1.22-.35-2.51,.24-3,1.34-.46,1.02-.15,2.3,.84,2.99,.58,.41,1.27,.67,1.92,.97,4.23,1.91,8.36,3.99,12.14,6.72,2.61,1.88,4.97,4.02,6.94,6.57,.93,1.21,1.33,2.53,1.11,4.04-.21,1.4-.64,1.79-2.07,1.72-.7-.04-1.4-.25-2.09-.44-.46-.12-.94-.56-1.33-.48-2.14,.47-3.32-1.13-4.83-2.08-5.08-3.17-10.18-6.32-15.3-9.42-.73-.44-1.63-.68-2.48-.82-1.14-.18-2.04,.36-2.5,1.43-.47,1.1-.13,2.05,.75,2.79,.42,.35,.96,.56,1.43,.85,5.45,3.33,11.01,6.5,16.31,10.05,2.35,1.57,4.29,3.79,6.22,5.9,1.32,1.45,1.86,3.33,1.58,5.36-.23,1.66-.91,2.56-2.59,2.6-1.64,.04-3.42-.07-4.91-.67-6.45-2.6-12.77-5.47-18.54-9.42-.33-.23-.62-.51-.97-.71-1.51-.86-3.24-.31-3.63,1.36-.28,1.19-.33,2.54-.09,3.74,1.02,5.03-.06,9.68-2.34,14.11-.9,1.74-2.45,2.95-4.24,3.75-2.26,1.01-3.99,.23-4.54-2.2-.3-1.3-.32-2.69-.25-4.03,.35-6.44-.22-12.76-2.02-18.97-.46-1.58-1.29-2.61-2.77-3.36-2.27-1.15-4.43-2.5-6.64-3.76,.45-.15,.9-.33,1.36-.45,5.67-1.42,9.53-4.97,11.87-10.23,4-8.98-.92-19.15-9.14-22.54-7.16-2.95-13.59-1.53-19.18,3.71-.97,.91-1.84,1.27-3.16,1.12-2.36-.27-4.75-.44-7.13-.44-2.37,0-4.55,.85-6.46,2.22-.94,.67-2.04,1.34-2.05,2.76-.55-.3-1.16-.53-1.65-.91-12.28-9.2-24.02-19.01-34.4-30.35-2.2-2.41-4.19-5.01-6.22-7.58-1.82-2.31-3.31-2.26-4.98,.27-2.2,.69-2.87,2.38-1.58,4.09,2.54,3.36,5.16,6.66,7.63,10.07,6.41,8.82,11.76,18.21,14.95,28.7,1.76,5.8,2.88,11.73,2.77,17.83-.04,2.3-.26,4.6-.47,6.89-.48,5.19-1.85,10.17-4.06,14.88-4.54,9.69-10.85,18.15-18.15,25.91-.52,.56-.88,1.28-1.31,1.92-3.48,1.5-6.28,3.84-8.59,6.8-.3,.08-.63,.11-.91,.25-2.79,1.36-5.57,2.74-8.36,4.12-.53,.26-1.04,.5-1.41-.22,2.23-2.71,4.46-5.42,6.68-8.14,.4-.49,.86-.96,1.19-1.5,.67-1.11,.51-2.22-.38-3.04-.92-.85-2.28-.92-3.28-.11-.49,.4-.89,.91-1.31,1.4-21.25,24.63-40.32,50.8-56.27,79.2-.27,.48-.59,.93-.96,1.52-.4-.52-.74-.94-1.04-1.38-7.05-10.31-15.93-18.48-27.49-23.51-.22-.09-.41-.23-.62-.35,.28-.73,.45-1.52,.84-2.19,2.46-4.21,4.96-8.39,7.45-12.57,.41,.24,.84,.46,1.22,.73,4.29,3.02,9.01,3.99,14.07,2.66,12.1-3.17,16.85-16.86,10.19-26.62-.43-.64-.81-1.31-1.22-1.98,.76-.92,1.44-1.69,2.05-2.52,2.23-2.98,2.95-6.48,3.35-10.08,.32-.23,.68-.42,.95-.7,7.05-7.26,14.5-14.08,22.37-20.43,2.84-2.29,5.77-4.47,8.7-6.63,1.33-.98,1.49-1.85,.38-3.54,.09-.76,.18-1.53,.27-2.29,.31-.8,.74-1.57,.91-2.4,.28-1.39,.32-2.84,.6-4.23,1-5,1.15-10.07,1.32-15.14,.07-2.29-.23-4.59-.45-6.88-.34-3.54-.56-7.12-1.2-10.61-.85-4.59-1.9-9.16-3.15-13.66-2.31-8.32-5.7-16.2-10.13-23.62Zm51.62,62.4c9.83-3.61,14.02-9,13.69-17.86-.26-6.97-4.66-13.46-11.68-15.65-7.54-2.35-16.38,1-20.34,6.98-1.87,2.82-2.54,5.9-2.63,9.28-.15,5.52,2.27,9.81,5.85,13.56-1.74,6.35,.36,10.75,5.59,11.9,4.55,1,8.5-2.36,9.51-8.21Z"/>
  <path class="cls-6" d="M123.02,607.81c.05,5.37-.16,10.73-1.67,15.92-.64,2.21-1.5,4.39-2.52,6.45-2.85,5.72-9.76,9.08-16.26,7.58-4.82-1.11-9.23-3.08-13.36-5.74-5.82-3.74-10.9-8.36-15.72-13.29-13.06-13.35-23.56-28.62-32.94-44.67-13.6-23.25-23.65-47.97-30.28-74.08-2.82-11.12-4.63-22.39-4.81-33.86-.1-6.16,.28-12.32,2.24-18.24,.6-1.81,1.35-3.6,2.29-5.26,3.32-5.85,8.94-8.71,16.81-6.87,5.92,1.38,11.09,4.47,15.98,8,8.03,5.8,14.84,12.89,21.12,20.49,12.17,14.73,22.26,30.83,31.01,47.79,9.75,18.88,17.67,38.46,22.83,59.11,3.01,12.04,5.32,24.19,5.29,36.68Zm-94.64-88.45c.19-.03,.68-.04,1.12-.19,1.88-.66,3.75-1.34,5.62-2.04,8.12-3.07,16.24-6.16,24.36-9.22,4.32-1.63,8.68-3.18,13-4.82,1.73-.66,2.67-2.14,2.29-3.71-.6-2.44-1.98-4.36-5.22-3.27-4.6,1.55-9.16,3.26-13.72,4.94-9.26,3.42-18.51,6.86-27.76,10.33-.88,.33-1.75,.82-2.48,1.4-1.28,1.01-1.75,2.61-1.29,3.8,.64,1.64,2.2,2.78,4.08,2.78Zm22.01,41.58c2.7-.65,5.45-1.13,8.08-1.99,9.01-2.96,17.97-6.05,26.94-9.12,2.34-.8,4.68-1.59,6.97-2.51,2.86-1.15,3.34-4.32,1.01-6.3-1.2-1.01-2.48-1.23-4-.67-3.67,1.35-7.34,2.68-11.06,3.85-9.42,2.95-18.58,6.7-28.25,8.87-1.07,.24-2.11,1.12-2.92,1.95-1.39,1.41-1.28,2.95-.06,4.51,.86,1.1,1.98,1.23,3.29,1.41Zm11.52-87.34c0-3.1-2.26-4.73-5.18-3.77-10.74,3.55-21.48,7.12-32.21,10.72-.98,.33-1.92,.81-2.8,1.33-1.66,.99-2.27,3.02-1.53,4.75,.82,1.91,2.65,2.77,4.68,2.08,1.66-.56,3.23-1.36,4.89-1.91,9.38-3.11,18.77-6.16,28.15-9.26,.83-.27,1.65-.64,2.38-1.1,1.05-.67,1.82-1.58,1.62-2.84Zm45.58,109.25c.04-2.95-2.49-4.7-5.18-3.54-1.91,.82-3.76,1.76-5.67,2.56-6.03,2.54-12.08,5.01-18.1,7.56-2.05,.87-4.08,1.8-6.02,2.89-1.52,.86-2.04,3.06-1.33,4.6,.75,1.61,2.36,2.45,4.15,1.85,3.32-1.11,6.64-2.27,9.86-3.62,6.55-2.74,13.05-5.6,19.53-8.49,1.57-.7,2.89-1.77,2.75-3.81Z"/>
  <path class="cls-12" d="M293.73,184.84c-1-1.18-2.4-1.47-3.98-1.55-16.12-.83-30.21-6.64-41.72-18-13.55-13.36-19.85-29.83-19.02-48.76,.79-18.09,8.4-33.17,22.13-44.92,6.65-5.69,14.49-9.1,23.22-10.63,8.21-1.44,15.95,.31,23.39,3.23,22.23,8.72,36.26,24.89,40.7,48.35,6.44,34-15.46,63.68-44.71,72.29Zm18.24-80.91c.34-1.36-.63-2.38-2.06-3.24-1.92-1.14-3.82-2.32-5.65-3.59-6.54-4.58-12.99-9.31-19.6-13.8-4.88-3.32-9.95-6.38-14.95-9.51-1.97-1.23-3.57-.54-4.13,1.68-.12,.46-.21,.94-.27,1.41-.65,5.39-1.29,10.79-1.92,16.19-.75,6.43-1.47,12.86-2.24,19.28-.46,3.81-1.01,7.6-1.48,11.41-.15,1.21-.1,2.37,1.02,3.25,6.84,5.37,13.67,10.76,20.5,16.15,6.59,5.2,13.16,10.41,19.76,15.59,1.36,1.07,2.9,.93,3.75-.4,.59-.92,1.15-1.97,1.33-3.02,.61-3.7,1.11-7.43,1.54-11.15,.79-6.74,1.5-13.5,2.24-20.25,.71-6.51,1.41-13.03,2.16-19.99Z"/>
  <path class="cls-13" d="M339.69,517.41c5.42,1.37,10.54,1.94,15.76,1.02,6.41-1.13,11.54-4.2,14.67-10.05,.69-1.29,1.09-2.84,1.24-4.3,.12-1.19,.47-2.04,1.26-2.94,8.48-9.73,14.92-20.58,17.64-33.33,.96-4.52,1.61-9.14,1.91-13.74,.25-3.83-.2-7.7-3.05-11.06,.79-.59,1.43-1.15,2.14-1.58,6.35-3.79,13.22-5.95,20.59-6.59,4.74-.42,9.41-.21,14.02,1.01,8.32,2.21,13.01,7.73,14.54,16.05,1.4,7.61,.55,15.13-1.22,22.58-2.61,11.01-7.41,21.09-13.18,30.73-9.31,15.57-20.05,30.07-32.89,42.92-6.81,6.82-14.33,12.75-22.74,17.5-6.42,3.63-13.22,6.13-20.65,6.31-6.9,.17-13.2-1.57-17.77-7.19-3.46-4.25-4.38-9.35-4.1-14.67,.25-4.74,1.18-9.39,2.94-13.78,2.14-5.33,4.59-10.54,6.96-15.78,.49-1.07,1.25-2.01,1.93-3.09Z"/>
  <path class="cls-3" d="M120.79,636.43c6.02-8.34,7.09-17.59,7.25-27.02,.2-12.06-1.71-23.89-4.51-35.58-7.34-30.66-20.04-59.05-36.55-85.8-6.72-10.9-14.05-21.37-22.58-30.96-5.92-6.65-12.34-12.76-19.65-17.88-7-4.9-14.22-9.28-23.25-9.19,2.74-1.33,5.57-1.19,8.38-.68,5.55,1.02,10.69,3.18,15.65,5.81,9.01,4.79,17.2,10.77,24.86,17.47,19.15,16.74,36.77,34.94,50.98,56.12,11.6,17.3,21.29,35.66,27.52,55.65,3.46,11.1,5.41,22.51,6.43,34.08,.13,1.48,.38,3.01-.54,4.41-.19,.28-.21,.82-.07,1.14,1.43,3.36,.41,6.61-.57,9.79-1.45,4.73-4.6,8.39-8.18,11.64-7.03,6.37-15.34,9.92-25.18,11Z"/>
  <path class="cls-8" d="M150.18,54.35c4.69-2.91,9.71-5.09,14.96-6.77,.52-.17,1.09-.28,1.63-.27,4.85,.08,9.71,.19,14.56,.29,.17,1.36-.6,1.43-1.62,1.2-3.17-.72-6.2-.1-9.08,1.2-7.41,3.34-11.11,11.53-9.75,19.77,1.67,10.12,12.91,15.97,21.85,13.47,6.37-1.78,10.24-6.22,12.04-12.52,.85-2.96,.6-5.98,.28-9.03,1.11-.34,2.18-.61,3.22-.98,3.17-1.15,5.2-3.41,5.93-6.67,.31-1.37,.12-2.86,.16-4.29,13.67,1.89,26.54,5.97,38.19,13.97-.5,.38-.89,.74-1.33,1.01-18.07,11.05-29,27.08-32.78,47.84-2.19,12.04-.77,23.86,3.56,35.31-.3,0-.61,.02-.91,.03-2.63-3.54-5.51-6.86-8.86-9.73-5.61-4.8-11.8-8.36-19.47-9.1,.61-.29,1.21-.58,1.82-.87,3.38-1.62,6.78-3.21,10.14-4.88,.85-.42,1.63-1.02,2.35-1.64,1.51-1.3,2.26-3.02,1.75-4.94-1.28-4.77-2.57-9.56-4.19-14.22-1.05-3.02-2.37-3.54-5.42-2.63-2.36,.71-4.68,1.63-6.91,2.69-9.69,4.6-18.9,10.04-27.67,16.22-.65,.46-1.34,.84-2.02,1.26-.13-1.1-.25-2.2-.39-3.3-.36-2.91-.77-5.81-1.06-8.72-.25-2.44-.35-4.9-.52-7.36-.31-4.59-.8-9.17-.88-13.76-.08-4.2,.25-8.42,.43-12.62,.14-3.17,.32-6.34,.5-9.51,.02-.39,.25-.77,.26-1.16,.13-3.14,.85-6.32-.77-9.31Z"/>
  <path class="cls-13" d="M34.53,425.14c4.99-.51,9.82,.52,14.59,1.89,11.48,3.28,22.03,8.61,31.86,15.26,9.66,6.53,19.01,13.53,28.48,20.34,3.57,2.56,7.11,5.17,10.68,7.73,.92,.66,1.79,1.29,2.2,2.42,.18,.5,.61,.93,.98,1.35,5.18,6.03,9.5,12.64,13.13,19.71,1.42,2.77,2.69,5.66,4.41,8.24,2.1,3.15,3.41,6.59,4.89,10.02,4.08,9.46,10.87,16.65,19.48,22.19,4.39,2.82,9.1,4.99,14.04,6.66,.45,.15,.89,.33,1.31,.48,3.85,18.14-5.43,46.6-20.31,56.74-.14-1.11-.32-2.09-.39-3.07-1.06-14.37-4.5-28.2-9.46-41.68-4.04-10.99-9.62-21.24-15.16-31.5-10.39-19.23-24-35.99-39.13-51.62-9.96-10.3-20.22-20.25-31.72-28.85-7.38-5.51-15.04-10.56-23.62-14.05-2.05-.83-4.17-1.5-6.26-2.24Z"/>
  <path class="cls-7" d="M288.82,389.69c.43-.64,.79-1.36,1.31-1.92,7.3-7.77,13.61-16.23,18.15-25.91,2.21-4.71,3.58-9.69,4.06-14.88,.21-2.29,.42-4.59,.47-6.89,.12-6.1-1.01-12.02-2.77-17.83-3.18-10.5-8.54-19.88-14.95-28.7-2.48-3.41-5.09-6.71-7.63-10.07-1.29-1.7-.62-3.4,1.58-4.09,.45,1.08,.73,2.29,1.39,3.23,4.41,6.23,9.85,11.54,15.34,16.78,11.19,10.67,23.41,20.07,36,29,6.19,4.39,12.36,8.79,18.61,13.24-.04,.39,0,.8-.12,1.16-7.08,20.91-18.12,39.41-33.66,55.16-.22,.23-.48,.42-.72,.62-1.5-.71-2.93-1.63-4.5-2.09-3.12-.91-6.33-.79-9.43,.12-1.54,.45-2.37,.27-3.39-1.07-2.48-3.27-5.82-5.33-9.85-6.33-3.37-.83-6.62-.35-9.89,.49Z"/>
  <path class="cls-3" d="M149.01,507.05c4.87-3.43,8.88-7.38,12.02-12.25,4.38,3.63,9.04,6.65,13.82,9.49,.55,.33,1.1,.66,1.69,.89,1.88,.76,3.19,.4,4.4-1.25,5.51-7.55,11.01-15.11,16.49-22.67,1.03-1.42,1.1-2.37-.04-3.67-1.15-1.31-2.54-2.4-4.05-3.8,1.64-1.64,3.56-3.12,5.46-4.74,.77,.63,1.45,1.28,2.22,1.8,1.22,.82,2.38,.68,3.24-.27,.83-.92,.89-2.27,0-3.28-.95-1.08-1.96-2.11-3.05-3.04-1.67-1.43-2.73-1.42-4.45,0-2.64,2.19-5.24,4.43-7.99,6.77-.85-.61-1.67-1.22-2.51-1.81-1.31-.91-2.58-1.89-3.96-2.69-2.79-1.63-3.85-1.17-5.57,1.6-3.37,5.43-6.9,10.76-10.39,16.11-.18,.28-.57,.44-.82,.63,0-1.41,.07-2.71-.01-3.99-.19-3.09-1.31-5.81-3.81-7.7-2.79-2.11-5.74-4.02-8.91-6.22,4.8-7.07,9.68-14.24,14.51-21.35,4.94-.55,9.35,.91,13.69,2.48,12.98,4.69,24.59,14.77,31.4,27.2-10.49,20-21.15,40.09-28.79,61.84-15.86-5.05-28.32-13.8-34.6-30.08Z"/>
  <path class="cls-3" d="M333.21,572.78c10.32,5.62,20.85,5.08,31.46,1,9.22-3.55,17.19-9.11,24.62-15.49,13.07-11.23,23.96-24.37,33.53-38.64,7.32-10.91,13.79-22.27,18.36-34.64,3.12-8.45,5.05-17.17,4.92-26.23-.08-5.22-.79-10.38-3.17-15.12-1.07-2.12-2.45-4.08-3.65-6.07,5.94-.05,13.32,3.4,17.78,8.58,1.45,1.68,2.64,3.6,3.86,5.47,1.81,2.78,1.9,5.8,1.35,9-2.86,16.58-8.88,31.99-17.51,46.34-14.29,23.75-31.87,44.77-53.25,62.48-7.95,6.59-16.47,12.39-26.08,16.39-3.33,1.39-6.74,2.48-10.33,2.92-3.09,.37-6.01,0-8.77-1.63-5.78-3.4-10.35-7.94-13.42-13.94,.1-.13,.21-.27,.31-.4Z"/>
  <path class="cls-4" d="M315.68,196.26c-3.83,3.73-7.51,7.63-11.51,11.16-12.65,11.15-26.58,20.54-41.6,28.11-15.14,7.63-31.02,13.5-47.66,17.09-.77,.17-1.57,.22-2.36,.32-.33-.96-.55-1.97-1-2.86-1.17-2.33-2.5-4.57-3.63-6.91-.54-1.11-.77-2.38-1.14-3.57,2.9-1.64,5.86-3.21,8.7-4.95,4.74-2.92,9.46-5.86,14.08-8.96,3.32-2.23,6.11-5.08,8.39-8.4,1.84-2.68,3.05-5.58,2.98-8.9,.93,.98,1.77,2.07,2.79,2.93,5.51,4.65,11.64,6.08,18.47,3.25,1.3-.54,2.22-.54,3.44,.44,4.04,3.26,10.75,1.47,12.32-4.11,.96-3.41-.34-6.77-3.59-8.85-.75-.48-1.47-.78-1.46-1.93,.02-1.74-.2-3.49-.32-5.23,2.29,.17,4.57,.34,6.86,.52,3.86,.3,7.71,.77,11.58,.88,5.33,.15,10.66,.06,15.99,.02,1.1,0,2.19-.34,3.29-.33,1.79,.01,3.57,.18,5.36,.29Z"/>
  <path class="cls-11" d="M120,179.22c.49,3.32,.74,6.34,1.4,9.27,2.81,12.59,8.39,23.75,17.61,32.91,3.56,3.54,7.63,6.33,12.45,7.86,1.87,.59,3.84,.86,5.97,1.32-2.03,1.23-4.16,1.56-6.24,1.94-7.69,1.4-15.45,1.85-23.08-.04-17.95-4.46-29.47-15.99-34.32-33.6-3.62-13.14-2.49-26.35,3.18-38.88,4.44-9.8,11.81-16.96,21.12-22.18,2.28-1.28,4.71-2.28,7.53-2.57,.12,.8,.14,1.42,.31,2.01,.33,1.17-.15,1.9-1.02,2.67-5.52,4.87-10.81,9.98-15.4,15.75-1.73,2.18-3.17,4.59-4.64,6.96-1.04,1.68-1,3.51-.21,5.3,2.2,4.96,5.62,8.88,10.12,11.87,1.75,1.16,3.46,.99,5.22-.59Z"/>
  <path class="cls-8" d="M324.28,429.61c1.9,1.69,3.81,3.38,5.71,5.08,3.22,2.89,6.63,5.5,10.39,7.65,.4,.23,.77,.52,1.32,.9-3.21,17.19-11.39,31.3-25.32,42-14.4-8.01-24.61-19.93-32.58-33.99,7.93-2.34,15.59-5.36,22.92-9.22,5.94-3.13,11.49-6.76,16.14-11.66,.35-.37,.94-.52,1.41-.77Z"/>
  <path class="cls-7" d="M244.59,282.04c4.43,7.42,7.82,15.3,10.13,23.62,1.25,4.5,2.3,9.07,3.15,13.66,.64,3.49,.86,7.07,1.2,10.61,.22,2.29,.53,4.59,.45,6.88-.17,5.06-.32,10.14-1.32,15.14-.28,1.39-.32,2.84-.6,4.23-.17,.83-.6,1.6-.91,2.4-1.79-1.92-2.51-2.09-4.69-.62-6.34,4.27-12.64,8.62-18.95,12.94-.78,.53-1.54,1.08-2.58,1.82,.15-2.01,.24-3.7,.39-5.39,.95-10.5-.14-20.85-2.16-31.14-.17-.86-.31-1.72-.47-2.58,3.02,.82,6.08,1.46,9.2,.73,1.28-.3,2.02,.03,2.91,.93,1.15,1.17,2.43,2.45,3.92,3.02,3.9,1.48,8.6-1.14,9.96-5.19,1.01-3.01,.37-5.66-1.62-8.04-.5-.6-1.13-1.09-1.72-1.65,.19-.77,.36-1.46,.54-2.15,.73-2.85,.73-5.7-.07-8.52-2.36-8.3-10.36-14.36-20.15-12.53-4.97,.92-8.95,3.71-11.52,8.22-.26-.39-.57-.76-.77-1.19-3.28-7.04-7.12-13.77-11.44-20.22-.22-.33-.42-.67-.78-1.26,8.65-2.53,17.15-5.03,25.83-7.57,.2,2.04,.39,4.16,.64,6.27,.17,1.42,.27,2.88,.66,4.25,.71,2.51,2.77,3.1,4.78,1.37,.89-.77,1.63-1.75,2.33-2.71,1.27-1.74,2.45-3.54,3.67-5.31Z"/>
  <path class="cls-8" d="M192.41,361.46c-.84,2.74-1.59,5.5-2.54,8.2-.79,2.25-1.64,4.52-2.78,6.61-3.81,6.99-8.67,13.22-14.3,18.84-1.93,1.93-4.13,3.54-6.79,4.37-3.65,1.14-6.06-1.13-5.52-4.92,.23-1.63,1.08-2.44,2.22-3.39,4.16-3.49,8.21-7.1,12.3-10.67,.24-.21,.46-.45,.65-.7,.84-1.16,.73-2.63-.23-3.47-.88-.77-2.27-.8-3.29,.06-.86,.72-1.62,1.54-2.42,2.32-3.9,3.8-7.96,7.4-12.55,10.37-2.29,1.48-4.67,2.85-7.39,3.3-1.29,.22-2.68,.06-4-.13-1.14-.17-1.56-1.12-1.33-2.18,.32-1.49,.97-2.66,2.37-3.65,7.74-5.52,15.36-11.2,23-16.86,.48-.36,1.05-.96,1.09-1.49,.06-.79-.11-1.74-.53-2.4-.48-.77-1.45-1.06-2.35-.65-.79,.36-1.54,.84-2.24,1.36-5.55,4.18-11.03,8.47-16.66,12.55-2.51,1.82-5.25,3.36-8.01,4.79-1.53,.79-3.29,1.21-4.99,1.58-1.09,.24-2.28,.04-2.95-1.1-.7-1.19-.12-2.22,.67-3.03,1.96-2,3.91-4.02,6.04-5.81,6.49-5.45,13.06-10.79,19.61-16.17,.49-.41,1.03-.77,1.49-1.2,1.03-.97,1.8-2.04,1.31-3.59-.47-1.49-1.75-1.74-3.02-1.95-2.28-.38-4.59-.61-6.85-1.1-2.34-.51-4.67-1.11-6.91-1.92-1.79-.64-3.52-1.52-5.13-2.54-1.05-.66-2.01-1.63-2.68-2.68-1.51-2.35-.22-4.85,2.51-5.31,4.49-.76,8.92-.29,13.33,.63,3.67,.76,7.35,1.51,10.97,2.48,2.72,.73,5.03,.5,6.97-1.68,.21-.23,.51-.37,.77-.55-.02,.64,.05,1.3-.09,1.91-.9,4.14,.19,7.88,2.14,11.49,3.54,6.56,12.45,10.01,18.11,8.29Z"/>
  <path class="cls-10" d="M162.73,42.95c-2.89,1.2-5.5,2.19-8.04,3.35-5.11,2.32-9.95,5.11-14.5,8.4-1.33,.96-2.34,1.08-3.88,.33-6.6-3.24-13.28-6.29-19.94-9.41-1.51-.71-3.02-1.41-4.75-2.22,.42-2.2,.69-4.33,1.25-6.39,2.29-8.49,6.32-16.07,12.53-22.33,1.88-1.9,4.21-3.44,6.55-4.78,4.12-2.35,8.66-3.61,13.49-4.62,7.89,11.55,12.6,24.5,17.29,37.67Z"/>
  <path class="cls-7" d="M150.18,54.35c1.62,2.99,.9,6.18,.77,9.31-.02,.39-.24,.77-.26,1.16-.18,3.17-.37,6.34-.5,9.51-.18,4.21-.51,8.42-.43,12.62,.09,4.59,.57,9.17,.88,13.76,.17,2.45,.27,4.91,.52,7.36,.29,2.91,.71,5.81,1.06,8.72,.14,1.1,.26,2.2,.39,3.3-2.25,1.91-2.81,4.23-1.99,7.07,.95,3.28,1.65,6.64,2.55,9.93,.63,2.3,1.26,2.73,3.68,2.97,.83,2.65,1.67,5.3,2.5,7.95-.67,3.9-1.34,7.81-2.04,11.83-2.06-.97-4.2-2.16-6.46-2.99-2.2-.81-4.54-1.26-7.1-1.95,1.72-1.39,3.26-2.64,4.8-3.89,1.86-1.51,2.25-2.8,1.35-5.02-.48-1.18-1.08-2.33-1.78-3.39-1.85-2.8-3.63-5.66-5.72-8.27-2.19-2.73-4.52-3.06-7.69-1.52-1.21,.59-2.35,1.32-3.68,2.08-.14-.51-.35-.93-.36-1.35-.65-17.79-.11-35.49,4.25-52.86,1.26-5.02,3.13-9.89,4.73-14.82,.37-1.14,1.03-2.22,1.19-3.38,.31-2.32,1.71-3.64,3.59-4.71,1.94-1.1,3.83-2.27,5.75-3.42Z"/>
  <path class="cls-5" d="M179.93,161.85c8.34-4.85,17.06-8.18,26.62-9.1,1.01-.1,1.78-.01,2.42,1,5.14,8.13,8.63,16.78,8.31,26.58-.22,6.77-2.39,12.89-7.04,17.91-5.04,5.45-11.19,7.4-18.48,5.35-4.71-1.32-8.74-3.78-12.3-6.98,.05-.22,.04-.32,.09-.37,6.98-7.84,7.03-16.75,3.89-26.07-.94-2.79-2.28-5.43-3.51-8.32Z"/>
  <path class="cls-3" d="M320.91,487.98c13.8-11.1,21.88-25.34,25.47-42.45,12.99,5.98,26.52,8.48,40.89,8.5-.23,2.4-.35,4.68-.68,6.94-2.01,13.58-7.88,25.37-16.7,35.78-1.44,1.7-2.96,2.5-5.28,2.55-11.95,.29-23.34-2.02-34.23-6.88-3.05-1.36-6.06-2.84-9.46-4.43Zm27.2-26.25c1.63-2.41,3.16-4.56,4.56-6.79,.82-1.3,.53-2.65-.53-3.41-1.11-.79-2.66-.54-3.55,.73-1.75,2.48-3.47,4.98-5.1,7.53-1.4,2.2-1.26,2.97,.45,4.86,1.44,1.6,2.78,3.31,4.32,4.81,1.18,1.16,1.21,2.2,.52,3.6-.94,1.93-1.75,3.94-2.52,5.95-.91,2.37-.13,3.71,2.3,4.15,.39,.07,.8,.07,1.19,.14,3.38,.59,6.77,1.1,10.12,1.82,3.5,.76,6.95,1.79,10.45,2.59,2.87,.65,3.95-.18,4.36-3.11,.25-1.74,.42-3.49,.79-5.21,.71-3.27,1.49-6.53,2.31-9.77,.65-2.54,.12-3.52-2.43-4.18-.31-.08-.62-.18-.93-.22-5.82-.65-11.44-2.1-16.89-4.22-2.1-.82-3.27-.35-4.41,1.6-.55,.94-.96,1.97-1.5,3.1-.46-.49-.79-.82-1.09-1.16-.78-.9-1.55-1.8-2.42-2.82Z"/>
  <path class="cls-11" d="M247.66,67.11c-20.03,19.28-28.44,42.33-21.42,69.48,6.99,27.01,24.96,43.65,52.4,50.59-1.34,.11-2.38,.28-3.43,.26-27.28-.35-52.13-18.87-59.75-44.46-7.11-23.88-1.67-44.95,14.97-63.26,4.44-4.89,9.74-8.74,15.53-11.91,.53-.29,1.12-.47,1.69-.71Z"/>
  <path class="cls-10" d="M204.36,49.76c-.04,1.43,.15,2.92-.16,4.29-.73,3.26-2.76,5.52-5.93,6.67-1.04,.38-2.11,.65-3.22,.98,.32,3.05,.57,6.06-.28,9.03-1.8,6.3-5.67,10.73-12.04,12.52-8.94,2.5-20.18-3.35-21.85-13.47-1.36-8.24,2.35-16.44,9.75-19.77,2.88-1.3,5.91-1.92,9.08-1.2,1.02,.23,1.79,.16,1.62-1.2,5.48,.36,10.97,.67,16.45,1.12,2.21,.18,4.38,.68,6.57,1.04Z"/>
  <path class="cls-10" d="M336.29,317.95c0-1.42,1.11-2.09,2.05-2.76,1.92-1.36,4.1-2.22,6.46-2.22,2.38,0,4.77,.17,7.13,.44,1.33,.15,2.19-.21,3.16-1.12,5.59-5.24,12.02-6.66,19.18-3.71,8.21,3.39,13.13,13.56,9.14,22.54-2.34,5.26-6.2,8.8-11.87,10.23-.46,.12-.91,.3-1.36,.45-3.07-1.97-6.2-3.85-9.19-5.94-7.63-5.34-15.21-10.77-22.79-16.18-.7-.5-1.28-1.15-1.91-1.73Z"/>
  <path class="cls-5" d="M141.2,187.01c6.24-4.62,13.3-6.11,20.57-7.33,3.18,7.46,7.4,14.09,13.27,19.68-.13,3.11-.06,6.29-.43,9.43-.72,6.02-3.45,10.93-8.79,14.1-4.87,2.89-9.93,3.26-15.08,.76-1.56-.76-3.03-1.71-4.63-2.63,5.52-12.42,4.5-23.77-4.91-34.01Z"/>
  <path class="cls-10" d="M224.02,392.17c-.39,3.6-1.11,7.09-3.35,10.08-.62,.82-1.3,1.6-2.05,2.52,.41,.67,.79,1.34,1.22,1.98,6.66,9.75,1.91,23.45-10.19,26.62-5.07,1.33-9.78,.36-14.07-2.66-.39-.27-.81-.49-1.22-.73-2.81-2.81-4.99-5.99-5.87-9.94-.05-.2-.28-.37-.43-.55,6.52-7.64,13.45-14.88,20.82-21.7,3.74-3.46,7.57-6.84,11.37-10.23,.52-.46,1.15-.79,1.73-1.18,.46,.7,1.1,1.34,1.35,2.11,.37,1.19,.47,2.46,.69,3.69Z"/>
  <path class="cls-10" d="M288.82,389.69c3.26-.83,6.51-1.32,9.89-.49,4.04,.99,7.38,3.06,9.85,6.33,1.02,1.34,1.85,1.52,3.39,1.07,3.1-.91,6.31-1.02,9.43-.12,1.57,.46,3,1.38,4.5,2.09-10.73,10.62-23.09,18.52-37.74,22.57-.68,.19-1.4,.23-2.1,.33-1.39-1.29-2.9-2.48-4.15-3.91-3.49-3.98-4.95-8.61-4.21-13.93,.36-2.59,1.44-4.86,2.55-7.15,2.31-2.96,5.12-5.31,8.59-6.8Z"/>
  <path class="cls-10" d="M219.68,308.4c2.57-4.52,6.56-7.3,11.52-8.22,9.79-1.82,17.8,4.24,20.15,12.53,.8,2.82,.8,5.67,.07,8.52-.18,.69-.35,1.38-.54,2.15,.59,.56,1.22,1.05,1.72,1.65,1.99,2.37,2.63,5.03,1.62,8.04-1.36,4.06-6.05,6.67-9.96,5.19-1.48-.56-2.76-1.84-3.92-3.02-.89-.91-1.63-1.23-2.91-.93-3.11,.73-6.17,.09-9.2-.73-2.04-6.33-4.05-12.68-6.14-19-.7-2.1-1.61-4.13-2.42-6.19Z"/>
  <path class="cls-7" d="M324.28,429.61c-.48,.25-1.06,.4-1.41,.77-4.65,4.9-10.2,8.53-16.14,11.66-7.33,3.86-14.99,6.87-22.92,9.22-4.27-6.89-7.49-14.27-10.28-21.86-.07-.2,0-.45,0-.91,14.35-1.02,27.76-4.93,39.81-13.46,2.46,5.95,6.75,10.23,10.95,14.58Z"/>
  <path class="cls-10" d="M329.12,257.53c-.02-1.43,.02-2.87-.05-4.3-.34-6.99,4.89-14.97,13.77-16.91,1.31-.29,2.68-.29,4.02-.42,6.06,.51,10.88,3.11,14.22,8.29,.19,.29,.64,.41,.96,.61,.68,4,1.35,7.99,2.03,11.99-.63-.29-.75,.01-.88,.59-2.22,9.51-12.78,16.11-22.87,12.24-.57-.22-1.23-.23-1.85-.33-2.05-2.38-4.14-4.72-6.12-7.16-1.18-1.45-2.16-3.06-3.24-4.6Z"/>
  <path class="cls-10" d="M272.6,194.88c.12,1.74,.33,3.49,.32,5.23-.01,1.15,.72,1.45,1.46,1.93,3.25,2.08,4.55,5.43,3.59,8.85-1.57,5.58-8.29,7.37-12.32,4.11-1.22-.98-2.14-.98-3.44-.44-6.83,2.83-12.95,1.4-18.47-3.25-1.03-.86-1.87-1.95-2.79-2.93-.25-2.11-1.27-3.87-2.5-5.54-.07-2.43-.63-4.82-.04-7.28,1.01-4.19,2.67-7.9,6.47-10.31,.59,.18,1.22,.3,1.78,.56,7.76,3.66,15.89,5.89,24.48,6.3,.31,.01,.6,.14,.91,.22,.19,.85,.37,1.7,.56,2.56Z"/>
  <path class="cls-1" d="M173.84,247.44c-1.89-.07-3.66-.44-5.21-1.57-2.42-1.77-3.21-4.47-2.04-7.21,.74-1.74,1.92-3.19,3.54-4.12,2.84-1.61,5.67-3.3,8.68-4.56,14.87-6.23,28.98-13.8,42.12-23.16,1.36-.97,2.79-1.89,4.27-2.65,3.26-1.67,7.95-.31,9.95,2.77,.73,1.13,.94,2.26,.54,3.63-.9,3.11-2.6,5.74-5.06,7.7-3.81,3.03-7.64,6.11-11.82,8.56-8.74,5.14-17.68,9.96-26.6,14.78-4.65,2.51-9.59,4.38-14.81,5.36-1.17,.22-2.37,.31-3.56,.46Zm1.86-2.63c.45-.17,1.28-.44,2.08-.79,14.89-6.46,29.31-13.81,43.13-22.33,1.49-.92,2.97-1.88,4.42-2.87,1.11-.76,1.43-2.04,.91-3.16-.52-1.12-1.68-1.66-3.01-1.17-.96,.35-1.85,.91-2.72,1.46-1.49,.93-2.89,1.99-4.4,2.89-13.25,7.9-26.94,14.95-41.13,21-.44,.19-.9,.36-1.28,.64-.95,.7-1.21,1.7-.82,2.77,.39,1.08,1.23,1.63,2.83,1.56Z"/>
  <path class="cls-10" d="M192.41,361.46c-5.66,1.72-14.57-1.73-18.11-8.29-1.94-3.6-3.03-7.35-2.14-11.49,.13-.61,.06-1.27,.09-1.91,3.96-4.16,7.92-8.31,11.88-12.47,.42,.07,.85,.22,1.26,.18,2.04-.21,4.02-.47,6.13-.26,7.03,.7,13.71,7.25,14.82,13.98,.07,.44,.36,.85,.54,1.27-3.13,3.92-6.31,7.81-9.38,11.78-1.79,2.33-3.4,4.8-5.1,7.2Z"/>
  <path class="cls-4" d="M244.87,185.24c-3.79,2.41-5.46,6.12-6.47,10.31-.59,2.46-.04,4.86,.04,7.28-1.02-.76-2.01-1.57-3.06-2.29-3.73-2.55-7.73-2.98-11.78-1.03-2.57,1.23-5.05,2.73-7.35,4.43-8.44,6.23-17.63,11.15-26.99,15.8-.21,.1-.46,.11-.69,.16-.95-2.43-1.98-4.83-2.83-7.28-.77-2.22-1.34-4.51-2.01-6.77,3.01,1.01,5.96,2.29,9.03,2.99,6.83,1.57,12.97-.28,18.33-4.65,5.87-4.79,9.22-11.1,10.54-18.51,1.34-7.49,.35-14.77-2.13-21.9,.09-.31,.17-.62,.26-.93,5.87,8.21,12.98,15.08,21.72,20.2,1.15,.68,2.25,1.45,3.37,2.18Z"/>
  <path class="cls-11" d="M203.34,44.39c5.76-3.65,11.54-6.07,17.6-7.88,5.68-1.7,11.48-2.8,17.4-3.1,5.73-.3,11.31,.57,16.64,2.76,5.16,2.12,9.36,5.44,12.5,10.08,1.92,2.84,3.51,5.84,4.89,9.08-4.79,.73-9.32,1.42-13.94,2.13-1.79-2.11-3.57-4.38-5.53-6.46-1.97-2.09-3.99-4.16-6.22-5.95-4.87-3.89-10.34-4.81-16.21-2.58-3.58,1.36-7.1,2.86-10.67,4.25-.7,.27-1.53,.56-2.23,.43-4.61-.83-9.21-1.77-14.22-2.75Z"/>
  <path class="cls-4" d="M204.69,147.83c-15.48,2.33-28.34,9.36-40.7,18.61-.1-2.49-.29-4.53-.24-6.56,.16-6.15,1.15-12.14,4.74-17.33,2.65-3.83,5.73-7.2,10.76-7.94,2.5-.37,4.96-.28,7.36,.4,7.35,2.08,12.96,6.66,18.08,12.82Z"/>
  <path class="cls-13" d="M146.73,502.04c-.73-1.17-1.59-2.4-2.3-3.71-2.07-3.78-4.09-7.58-6.1-11.39-2.39-4.54-5.32-8.71-8.51-12.71-.39-.49-.73-1.03-1.11-1.58,.16-.42,.35-.77,.43-1.15,.71-3.49,3.23-4.4,6.36-4.56,2.93-.14,5.71,.42,8.41,1.5,4.77,1.9,9.11,4.61,13.35,7.46,3.18,2.15,3.98,4.63,3.01,8.3-1.99,7.51-6.47,13.25-12.76,17.66-.12,.08-.3,.08-.76,.18Z"/>
  <path class="cls-4" d="M127.38,191.97c-1.48-5.02-2.48-10.02-2.15-15.17,.38-5.93,3-10.7,7.87-14.12,3.04-2.14,6.44-3.02,10.2-2.5,5.09,.71,9.69,2.32,13.51,6.02,1.04,1.01,1.65,1.96,1.92,3.28,.36,1.7,.76,3.39,1.19,5.27-1.71,.43-3.29,.94-4.91,1.23-9.96,1.79-18.09,6.85-25.12,13.92-.67,.68-1.35,1.34-2.03,2.01-.04,.04-.14,.02-.48,.06Z"/>
  <path class="cls-7" d="M272.6,194.88c-.19-.85-.37-1.7-.56-2.56,8.2,.32,16.26-.47,24.11-2.94,14.91-4.7,26.78-13.58,35.83-26.29,.54-.76,1.08-1.53,1.71-2.41,.34,.49,.6,.8,.78,1.14,.95,1.84,1.89,3.69,2.86,5.6-1.33,2.21-2.53,4.47-3.97,6.56-5.28,7.62-10.77,15.08-17.12,21.86-.16,.17-.37,.28-.56,.42-1.79-.1-3.57-.27-5.36-.29-1.1,0-2.19,.32-3.29,.33-5.33,.04-10.67,.13-15.99-.02-3.86-.11-7.72-.58-11.58-.88-2.29-.18-4.57-.35-6.86-.52Z"/>
  <path class="cls-7" d="M192.46,317.77c3.45-4.18,6.92-8.35,10.35-12.55,1.86-2.28,3.66-4.62,5.67-7.17,5.53,9.38,9.79,19.08,12.77,29.1-4.74,5.02-9.33,9.88-13.93,14.74-.6-1.93-.77-3.85-.2-5.86,.22-.78,.1-1.78-.2-2.55-.68-1.77-1.39-3.56-2.39-5.15-2.12-3.4-4.87-6.26-8.16-8.55-1.2-.83-2.18-2.2-3.92-2.01Z"/>
  <path class="cls-7" d="M280.22,396.49c-1.12,2.29-2.19,4.57-2.55,7.15-.74,5.32,.71,9.95,4.21,13.93,1.25,1.42,2.76,2.61,4.15,3.91-3.02,.6-6.01,1.44-9.06,1.77-7.9,.84-15.78,.3-23.61-.98-.14-.02-.27-.15-.57-.32,.14-.31,.22-.68,.44-.95,5.3-6.7,10.62-13.39,15.94-20.07,.09-.12,.25-.19,.38-.28,.37,.72,.88,.48,1.41,.22,2.78-1.38,5.57-2.76,8.36-4.12,.28-.14,.61-.17,.91-.25Z"/>
  <path class="cls-11" d="M126.31,100.74c-.29,5.38-.55,10.16-.82,15.21-1.72,1.32-3.61,2.76-5.49,4.23-1.2,.93-2.37,1.9-3.57,2.83-1.34,1.04-1.8,2.41-1.54,4.03,.32,2.04,.71,4.06,1.08,6.13-2.39,1.52-4.79,3.05-7.37,4.69-.81-2.14-1.6-4.13-2.33-6.15-.6-1.65-.93-3.42-1.71-4.98-1.64-3.26-.89-6,1.41-8.52,2.42-2.65,4.7-5.47,7.35-7.86,3.02-2.72,6.37-5.07,9.62-7.54,.92-.7,1.98-1.23,3.37-2.08Z"/>
  <path class="cls-7" d="M338.47,269.29c.62,.11,1.28,.11,1.85,.33,10.09,3.87,20.64-2.73,22.87-12.24,.14-.58,.25-.89,.88-.59,1.49,10.39,2.21,20.82,2.14,31.32,0,.87,0,1.75,0,2.88-.72-.29-1.24-.43-1.68-.7-9.65-5.81-18.32-12.82-26.06-21Z"/>
  <path class="cls-7" d="M362.04,244.8c-.33-.2-.78-.32-.96-.61-3.34-5.18-8.17-7.79-14.22-8.29,.36-2.34,.71-4.69,1.1-7.02,.59-3.47,.59-6.93,0-10.4-.54-3.19-.9-6.42-1.6-9.58-.42-1.87-.48-3.96-2-5.46,2.38-1.4,4.76-2.79,7.39-4.34,.41,1.64,.77,3.01,1.09,4.39,2.89,12.67,5.79,25.34,8.66,38.01,.25,1.08,.37,2.2,.55,3.3Z"/>
  <path class="cls-11" d="M180.68,471.4c4.04,2.81,7.82,5.44,11.73,8.16-5.07,6.84-10,13.49-15.1,20.35-3.63-1.9-7-4.37-10.66-6.95,4.68-7.19,9.27-14.25,14.03-21.56Z"/>
  <path class="cls-13" d="M366.43,504.28c-.51,1.11-.81,2-1.31,2.77-2.24,3.48-5.52,5.63-9.5,6.31-7.01,1.18-13.83,.48-20.09-3.26-1.29-.77-2.82-1.55-2.65-3.36,.16-1.72,1.62-2.52,3.02-3.1,1.68-.71,3.45-1.23,5.2-1.76,.42-.13,.94-.04,1.38,.07,7.49,1.74,15.07,2.53,22.77,2.2,.23-.01,.47,.06,1.17,.15Z"/>
  <path class="cls-12" d="M95.23,214.77c.67,.94,1.33,1.89,2.02,2.82,8.15,11.03,18.88,18.04,32.45,20.28,8.43,1.39,16.88,.91,25.22-1.02,1.69-.39,3.31-1.08,5.06-1.67,.53,.88,1.06,1.75,1.67,2.76-.33,.29-.61,.73-.98,.84-10.14,2.96-20.46,4.24-31.01,3.07-5.1-.57-10.07-1.73-14.77-3.84-1.59-.72-3.15-1.58-4.57-2.59-7.21-5.16-12.01-12.22-15.69-20.14,.2-.17,.4-.34,.61-.51Z"/>
  <path class="cls-7" d="M206.78,239.6c.37,1.2,.6,2.46,1.14,3.57,1.13,2.34,2.46,4.58,3.63,6.91,.45,.9,.67,1.9,1,2.86-3.44,.63-6.88,1.33-10.33,1.89-4.09,.67-8.21,1.15-12.3,1.87-1.7,.3-2.88-.05-3.92-1.43-1.05-1.38-2.27-2.63-3.4-3.92,.25-.26,.33-.43,.47-.48,8.15-2.7,15.52-7.04,23.06-11.03,.21-.11,.44-.17,.66-.26Z"/>
  <path class="cls-4" d="M188.06,419.47c.15,.18,.39,.34,.43,.55,.88,3.96,3.06,7.13,5.87,9.94-2.49,4.19-5,8.37-7.45,12.57-.39,.67-.57,1.46-.84,2.19-4.01-1.27-8.02-2.55-12.04-3.79-.8-.25-1.66-.31-2.85-.52,5.49-7.32,10.88-14.38,16.89-20.95Z"/>
  <path class="cls-5" d="M294.15,258.08c-6.14-3.41-11.89-6.61-17.75-9.87-.44-3.2,.65-5.95,3.01-8.1,2.43-2.23,5.28-3.86,8.52-4.64,1.05-.25,2.18-.19,3.44-.29,1.43,7.56,2.53,14.94,2.78,22.9Z"/>
  <path class="cls-5" d="M211.96,275.03c-8.01,4.05-16.4,7.25-25.51,9.62,.65-.88,1.05-1.46,1.48-2.02,3.83-4.92,7.67-9.83,11.49-14.76,1.93-2.48,4.62-3.17,7.46-1.88,3.44,1.56,5.47,5.12,5.08,9.02Z"/>
  <path class="cls-5" d="M252.09,258.69c-4.1,8.33-8.81,15.96-14.17,23.44-.21-2.23-.47-4.47-.63-6.7-.31-4.21-.51-8.44-.85-12.65-.21-2.65,1.14-4.27,3.35-5.22,4.17-1.79,8.2-1.39,12.3,1.13Z"/>
  <path class="cls-7" d="M183.75,205.86c.66,2.26,1.24,4.54,2.01,6.77,.85,2.46,1.88,4.86,2.83,7.29-4.1,1.94-8.2,3.87-12.31,5.8-2.09,.98-4.27,1.81-6.27,2.97-1.91,1.11-3.63,2.54-5.65,3.99-.43-.93-.88-1.89-1.39-2.98,12.28-4.4,16.96-13.67,17-26.23,1.42,.9,2.6,1.65,3.78,2.4Z"/>
  <path class="cls-5" d="M313.32,220.1c-.53-2.48-.21-4.71,1.12-6.58,1.9-2.66,4.17-5.01,7.23-6.71,4.27,5.35,7.8,11.07,10.99,17.58-6.64-1.47-12.9-2.86-19.34-4.29Z"/>
  <path class="cls-4" d="M224.02,392.17c-.22-1.24-.32-2.51-.69-3.69-.24-.77-.88-1.41-1.35-2.11,.73-.72,1.4-1.51,2.18-2.16,9.99-8.17,20.28-15.91,31.31-22.64,.34-.21,.63-.47,.95-.71,1.11,1.69,.95,2.57-.38,3.54-2.94,2.16-5.86,4.35-8.7,6.63-7.88,6.35-15.33,13.17-22.37,20.43-.27,.28-.63,.47-.95,.7Z"/>
  <path class="cls-4" d="M192.46,317.77c1.74-.18,2.72,1.18,3.92,2.01,3.29,2.29,6.04,5.15,8.16,8.55,.99,1.6,1.71,3.39,2.39,5.15,.3,.77,.42,1.77,.2,2.55-.57,2.01-.4,3.92,.2,5.86-.15,.19-.29,.38-.44,.58-.19-.42-.47-.83-.54-1.27-1.11-6.73-7.79-13.28-14.82-13.98-2.11-.21-4.09,.06-6.13,.26-.41,.04-.84-.12-1.26-.18,2.78-3.18,5.55-6.35,8.33-9.53Z"/>
  <path class="cls-3" d="M355.61,190.08c-5.28,4.24-10.96,7.59-16.9,10.47-1.82-2.25-2.13-5.92-.84-8.31,.47-.87,1.18-.96,1.99-1.02,2.95-.2,5.9-.4,8.85-.61,2.3-.17,4.6-.35,6.9-.53Z"/>
  <path class="cls-4" d="M159.35,148c-.83-2.65-1.67-5.3-2.5-7.95,2.87-1.29,5.74-2.58,8.62-3.87,.23,.23,.45,.46,.68,.69-2.96,3.28-5.07,7.09-6.8,11.13Z"/>
  <path class="cls-3" d="M386.9,448.85h-4.64c1.06-1.1,1.86-1.92,2.89-2.98,.63,1.08,1.09,1.86,1.75,2.98Z"/>
  <path class="cls-11" d="M93.08,211.2c.59,.92,1.19,1.84,1.78,2.76-.17,.09-.33,.18-.5,.26-.94-.76-1.37-1.78-1.24-3.06l-.04,.04Z"/>
  <path class="cls-10" d="M211.08,147.93c.3,0,.6-.02,.91-.03,.36,.77,.72,1.53,1.09,2.3-.14,.09-.28,.18-.43,.27-.52-.85-1.05-1.69-1.57-2.54Z"/>
  <path class="cls-10" d="M219.79,162.86c-.09,.31-.17,.62-.26,.93-.28-.58-.56-1.16-.84-1.74,.13-.08,.26-.17,.38-.25,.24,.35,.48,.71,.72,1.06Z"/>
  <path class="cls-10" d="M166.15,136.88c-.23-.23-.45-.46-.68-.69,.43-.2,.87-.4,1.3-.61,.09,.13,.19,.25,.31,.36-.31,.31-.62,.62-.93,.93Z"/>
  <path class="cls-11" d="M93.12,211.16c-.17-.13-.34-.27-.07-.05-.1-.33-.04-.12,.03,.09,0,0,.04-.04,.04-.04Z"/>
  <path class="cls-12" d="M94.63,215.28c-.03-.27-.06-.53-.1-.8,.23,.1,.47,.2,.7,.29-.2,.17-.4,.34-.61,.51Z"/>
  <path class="cls-10" d="M166.76,135.58c.18-.03,.35-.06,.53-.09-.07,.15-.14,.3-.21,.45-.12-.11-.22-.23-.31-.36Z"/>
  <path class="cls-3" d="M332.9,573.19c-.09-.17-.18-.35-.27-.52l.58,.12c-.1,.13-.21,.27-.31,.4Z"/>
  <path class="cls-10" d="M296.21,344.44c-1.01,5.85-4.96,9.21-9.51,8.21-5.23-1.15-7.33-5.55-5.59-11.9-3.58-3.75-6-8.05-5.85-13.56,.09-3.38,.76-6.46,2.63-9.28,3.96-5.98,12.79-9.33,20.34-6.98,7.02,2.19,11.42,8.68,11.68,15.65,.33,8.87-3.86,14.25-13.69,17.86Z"/>
  <path class="cls-9" d="M28.38,519.36c-1.88,0-3.44-1.14-4.08-2.78-.46-1.2,0-2.79,1.29-3.8,.74-.58,1.6-1.07,2.48-1.4,9.24-3.47,18.5-6.91,27.76-10.33,4.56-1.68,9.11-3.39,13.72-4.94,3.24-1.1,4.62,.83,5.22,3.27,.38,1.56-.56,3.05-2.29,3.71-4.32,1.64-8.67,3.19-13,4.82-8.13,3.06-16.24,6.15-24.36,9.22-1.86,.7-3.74,1.38-5.62,2.04-.44,.15-.94,.16-1.12,.19Z"/>
  <path class="cls-9" d="M50.4,560.94c-1.31-.18-2.44-.32-3.29-1.41-1.23-1.57-1.33-3.1,.06-4.51,.81-.82,1.84-1.71,2.92-1.95,9.67-2.17,18.84-5.91,28.25-8.87,3.72-1.17,7.4-2.5,11.06-3.85,1.53-.56,2.81-.34,4,.67,2.33,1.98,1.86,5.16-1.01,6.3-2.29,.92-4.63,1.71-6.97,2.51-8.97,3.06-17.94,6.15-26.94,9.12-2.63,.86-5.38,1.34-8.08,1.99Z"/>
  <path class="cls-9" d="M61.92,473.6c.2,1.26-.57,2.18-1.62,2.84-.73,.47-1.55,.83-2.38,1.1-9.38,3.1-18.77,6.16-28.15,9.26-1.66,.55-3.24,1.34-4.89,1.91-2.03,.69-3.86-.18-4.68-2.08-.74-1.73-.13-3.76,1.53-4.75,.89-.53,1.83-1.01,2.8-1.33,10.73-3.6,21.46-7.17,32.21-10.72,2.92-.96,5.18,.66,5.18,3.77Z"/>
  <path class="cls-9" d="M107.5,582.86c.15,2.03-1.18,3.11-2.75,3.81-6.49,2.89-12.99,5.74-19.53,8.49-3.23,1.35-6.54,2.51-9.86,3.62-1.79,.6-3.4-.23-4.15-1.85-.72-1.53-.2-3.74,1.33-4.6,1.94-1.09,3.97-2.02,6.02-2.89,6.02-2.55,12.07-5.03,18.1-7.56,1.91-.8,3.77-1.74,5.67-2.56,2.69-1.16,5.22,.59,5.18,3.54Z"/>
  <path class="cls-2" d="M311.97,103.93c-.75,6.96-1.45,13.48-2.16,19.99-.74,6.75-1.45,13.5-2.24,20.25-.43,3.73-.93,7.45-1.54,11.15-.17,1.06-.74,2.1-1.33,3.02-.85,1.33-2.39,1.46-3.75,.4-6.6-5.18-13.17-10.39-19.76-15.59-6.83-5.39-13.66-10.78-20.5-16.15-1.12-.88-1.17-2.04-1.02-3.25,.47-3.8,1.02-7.6,1.48-11.41,.77-6.42,1.49-12.86,2.24-19.28,.63-5.4,1.27-10.79,1.92-16.19,.06-.48,.15-.95,.27-1.41,.56-2.22,2.16-2.91,4.13-1.68,5.01,3.13,10.07,6.19,14.95,9.51,6.61,4.49,13.05,9.21,19.6,13.8,1.83,1.28,3.73,2.45,5.65,3.59,1.43,.85,2.39,1.88,2.06,3.24Zm-6.34,9.84c-.27,.27-.59,.51-.79,.82-1.67,2.63-3.28,5.3-4.97,7.92-1.51,2.35-3.05,4.69-4.67,6.97-1.27,1.79-1.91,1.9-4.07,1.18-.53-.18-1.07-.31-1.62-.43-4.6-.99-9.21-1.97-13.81-2.94-2.51-.53-5.04-1.01-7.56-1.52,10.94,9.07,21.64,18.23,33.34,26.82,.3-2.2,.57-3.99,.78-5.79,.91-8.02,1.82-16.03,2.67-24.06,.32-3,.44-6.01,.66-9.02,.08-.09,.16-.17,.24-.26-.07,.1-.13,.2-.2,.31Zm-.16-9.88c-10.35-6.6-19.55-14.34-29.75-20.62-.15,.14-.31,.27-.46,.41,5.92,13.24,11.84,26.49,17.97,40.2,4.22-6.88,8.17-13.33,12.24-19.99Zm-35.46-19.83l-.57,.1c-1.38,11.92-2.77,23.84-4.17,35.9,7.59,1.6,15.04,3.18,22.95,4.85-6.19-13.89-12.2-27.37-18.21-40.85Z"/>
  <path class="cls-2" d="M348.1,461.73c.88,1.02,1.64,1.93,2.42,2.82,.3,.35,.63,.68,1.09,1.16,.54-1.13,.95-2.16,1.5-3.1,1.14-1.95,2.31-2.42,4.41-1.6,5.46,2.12,11.07,3.58,16.89,4.22,.31,.03,.62,.14,.93,.22,2.55,.65,3.07,1.63,2.43,4.18-.83,3.24-1.61,6.5-2.31,9.77-.37,1.71-.54,3.47-.79,5.21-.41,2.92-1.49,3.76-4.36,3.11-3.5-.8-6.94-1.83-10.45-2.59-3.35-.72-6.74-1.23-10.12-1.82-.39-.07-.8-.07-1.19-.14-2.43-.44-3.21-1.78-2.3-4.15,.77-2.01,1.57-4.02,2.52-5.95,.69-1.4,.66-2.45-.52-3.6-1.54-1.5-2.88-3.21-4.32-4.81-1.71-1.89-1.85-2.66-.45-4.86,1.63-2.56,3.35-5.06,5.1-7.53,.89-1.26,2.45-1.51,3.55-.73,1.06,.76,1.36,2.1,.53,3.41-1.41,2.22-2.93,4.37-4.56,6.79Zm8.73,4.68c-1.64,3.99-3.25,7.94-4.85,11.85,6.09,1.43,11.93,2.8,17.8,4.18,.87-4.25,1.69-8.27,2.48-12.16-5.16-1.29-10.16-2.54-15.44-3.86Z"/>
  <path class="cls-2" d="M175.71,244.81c-1.59,.07-2.44-.48-2.83-1.56-.39-1.07-.12-2.07,.82-2.77,.38-.28,.84-.45,1.28-.64,14.2-6.05,27.88-13.1,41.13-21,1.51-.9,2.91-1.96,4.4-2.89,.87-.55,1.76-1.11,2.72-1.46,1.33-.48,2.49,.05,3.01,1.17,.52,1.12,.19,2.4-.91,3.16-1.44,1-2.92,1.95-4.42,2.87-13.82,8.53-28.24,15.88-43.13,22.33-.8,.35-1.63,.62-2.08,.79Z"/>
  <path class="cls-11" d="M305.59,113.72c-.21,3.01-.34,6.02-.66,9.02-.84,8.02-1.76,16.04-2.67,24.06-.2,1.8-.48,3.59-.78,5.79-11.7-8.58-22.41-17.75-33.34-26.82,2.52,.51,5.04,.99,7.56,1.52,4.61,.97,9.21,1.95,13.81,2.94,.54,.12,1.09,.25,1.62,.43,2.16,.72,2.8,.6,4.07-1.18,1.62-2.28,3.16-4.62,4.67-6.97,1.69-2.62,3.3-5.29,4.97-7.92,.2-.31,.52-.55,.79-.82,0,0-.04-.05-.04-.05Z"/>
  <path class="cls-11" d="M305.47,103.89c-4.08,6.66-8.03,13.1-12.24,19.99-6.13-13.72-12.05-26.96-17.97-40.2,.15-.14,.31-.27,.46-.41,10.2,6.29,19.41,14.02,29.75,20.62Z"/>
  <path class="cls-11" d="M270.01,84.06c6.01,13.48,12.02,26.96,18.21,40.85-7.92-1.67-15.36-3.25-22.95-4.85,1.4-12.06,2.78-23.98,4.17-35.9l.57-.1Z"/>
  <path class="cls-11" d="M305.63,113.77c.07-.1,.13-.2,.2-.31-.08,.09-.16,.17-.24,.26,0,0,.04,.05,.04,.05Z"/>
  <path class="cls-11" d="M356.84,466.41c5.28,1.32,10.28,2.57,15.44,3.86-.79,3.89-1.62,7.91-2.48,12.16-5.87-1.38-11.71-2.75-17.8-4.18,1.6-3.91,3.21-7.85,4.85-11.85Z"/>
</svg>