<svg width="73" height="95" viewBox="0 0 73 95" fill="none" xmlns="http://www.w3.org/2000/svg">
<g clip-path="url(#clip0_90_10736)">
<path d="M72.97 12.1401C72.89 11.4801 72.58 10.9101 72.06 10.4601C71.58 10.0301 70.96 9.75008 70.47 9.53008L70.03 9.32008C69.02 8.84008 68 8.37008 66.96 7.90008L66.36 7.63008C65.24 7.14008 64.11 6.65008 62.98 6.17008C62.98 6.17008 59.19 4.56008 58.4 4.21008C57.29 3.73008 56.17 3.28008 55.05 2.84008L53.28 2.13008C51.41 1.37008 49.47 0.580078 47.42 0.580078C46.06 0.580078 44.85 0.930078 43.72 1.64008C42.42 2.45008 41.59 3.68008 41.27 5.27008C40.86 7.22008 39.8 11.5001 38.83 15.3201C38.62 16.1701 37.78 16.6901 36.92 16.5301C35.23 16.2201 33.53 15.9201 31.84 15.6401C29.51 15.2501 27.21 14.6201 24.82 14.4401C22.46 14.2901 20.13 14.9401 17.84 15.5001C12.84 16.7001 7.94004 18.3801 3.29004 20.5901C2.07004 21.1901 1.78004 21.7901 1.76004 23.0801C1.66004 27.8301 0.930042 32.6501 0.640042 37.4001C0.330042 42.5701 0.140042 47.7401 0.040042 52.9401C-0.139958 63.4801 0.0400419 74.1501 1.67004 84.5901C1.73004 84.9401 1.86004 85.3401 1.84004 85.7101C1.84004 85.9801 1.90004 86.2701 2.05004 86.5201C2.30004 86.9801 3.06004 88.3701 16.99 91.5401C21.08 92.4701 31.02 94.5701 37.41 94.5701C37.66 94.5701 37.93 94.5701 38.19 94.5501C53.19 94.1101 58.28 88.0301 58.5 87.7801C58.89 87.2801 59.14 86.9901 59.53 76.7601C59.76 70.9901 59.98 63.2301 60.11 55.4301C60.27 47.2101 60.34 39.6401 60.3 34.1001C60.28 31.7801 60.28 29.4901 60.18 27.1901C60.14 26.1901 60.08 25.1801 59.95 24.2001C59.74 22.6801 58.42 22.1501 57.14 21.6101C56.62 21.4001 56.05 21.1901 55.51 20.9901C54.25 20.5301 52.95 20.1401 51.65 19.7701C51.4 19.6901 48.74 18.9601 48.65 18.9601L47.94 18.8101C47.32 18.6701 46.37 17.9001 46.63 16.5701L48.39 9.10008C48.63 8.95008 48.97 8.72008 49.26 8.43008L51.51 9.40008C51.96 9.59008 66.91 15.9701 67.07 16.0401C67.34 16.1501 67.59 16.2501 67.87 16.3901L68.07 16.4801C68.2 16.5401 68.33 16.5901 68.49 16.6501C68.74 16.7401 69.07 16.8701 69.47 16.9001C69.76 16.9001 69.99 16.8401 70.22 16.7801C70.68 16.6401 71.11 16.3601 71.52 15.9501C71.91 15.5601 72.23 15.1201 72.47 14.6001C72.89 13.7201 73.04 12.8901 72.94 12.1401H72.97ZM10.89 82.4601C10.77 82.6801 10.49 82.7701 10.26 82.6601C10.03 82.5501 9.93004 82.2801 10 82.0301L18.38 56.1801L4.91004 54.8801C4.72004 54.8601 4.56004 54.7401 4.49004 54.5601C4.44004 54.3801 4.47004 54.1801 4.59004 54.0401L21.11 35.0501C21.27 34.8701 21.54 34.8301 21.73 34.9801C21.94 35.1101 22.01 35.3801 21.92 35.6101L16.88 47.4001C16.8 47.5801 16.94 47.7901 17.14 47.7901H30.65C30.82 47.7901 30.98 47.8801 31.07 48.0401C31.16 48.2001 31.16 48.4001 31.07 48.5401L10.87 82.4601H10.89ZM36.71 88.7201C36.69 89.1801 36.28 89.5301 35.74 89.5301C32.23 89.6401 26.79 89.4201 21.77 88.2601C21.43 88.1801 21.49 87.6901 21.84 87.6701C37.23 86.7901 32.75 54.9001 36 36.9001C39.17 19.2901 36.99 81.0201 36.71 88.7301V88.7201ZM49.48 24.7201C50.88 24.4401 52.3 24.2801 53.72 24.2001C55.82 24.0901 55.94 24.0301 55.56 24.4001C55.27 24.6801 54.66 24.8201 54.3 24.9601C53.74 25.1801 53.16 25.3801 52.59 25.5801C50.04 26.4601 47.45 27.2501 44.86 28.0301C42.96 28.6001 41.06 29.1901 39.14 29.6501C38.85 29.7201 38.56 29.7801 38.27 29.8201C36.88 30.0101 35.5 29.8101 34.13 29.5501C32.21 29.1801 30.3 28.7701 28.4 28.3001C23.15 27.0201 17.92 25.6401 12.7 24.2001C7.42004 22.6901 6.54004 21.7901 13.1 22.7301C13.33 22.7601 13.53 22.7801 13.74 22.8001C17.27 23.3401 20.84 23.8101 24.35 24.3601C29.58 25.1801 34.96 26.3101 40.27 26.0201C43.37 25.8601 46.43 25.3301 49.47 24.7201H49.48Z" fill="black"/>
</g>
<defs>
<clipPath id="clip0_90_10736">
<rect width="73" height="94" fill="white" transform="translate(0 0.580078)"/>
</clipPath>
</defs>
</svg>
