<svg width="460" height="104" viewBox="0 0 460 104" fill="none" xmlns="http://www.w3.org/2000/svg">
<g clip-path="url(#clip0_90_10715)">
<path d="M74.3 11.81C74.22 11.14 73.9 10.56 73.37 10.09C72.88 9.65 72.25 9.37 71.75 9.14L71.31 8.93C70.28 8.44 69.25 7.96 68.19 7.48L67.58 7.21C66.44 6.71 65.29 6.21 64.14 5.72C64.14 5.72 60.28 4.07 59.47 3.72C58.34 3.23 57.2 2.77 56.06 2.32L54.26 1.59C52.35 0.81 50.38 0 48.29 0C46.9 0 45.67 0.36 44.52 1.09C43.19 1.92 42.35 3.17 42.03 4.8C41.61 6.8 40.53 11.16 39.55 15.06C39.33 15.92 38.48 16.46 37.61 16.3C35.89 15.98 34.16 15.68 32.43 15.39C30.06 15 27.71 14.35 25.29 14.17C22.88 14.01 20.52 14.68 18.19 15.25C13.1 16.47 8.10997 18.19 3.36997 20.45C2.12997 21.06 1.82997 21.67 1.80997 22.99C1.70997 27.84 0.959968 32.77 0.669968 37.62C0.349968 42.9 0.159968 48.18 0.0599683 53.49C-0.120032 64.25 0.0599684 75.15 1.71997 85.82C1.77997 86.18 1.91997 86.59 1.89997 86.96C1.89997 87.24 1.95997 87.53 2.11997 87.79C2.37997 88.26 3.14997 89.68 17.33 92.91C21.49 93.86 31.62 96 38.13 96C38.39 96 38.66 96 38.92 95.98C54.19 95.53 59.38 89.32 59.6 89.06C60 88.55 60.25 88.25 60.65 77.81C60.89 71.92 61.1 63.99 61.24 56.03C61.4 47.63 61.48 39.91 61.44 34.25C61.42 31.88 61.42 29.54 61.32 27.19C61.28 26.17 61.22 25.14 61.08 24.13C60.86 22.57 59.52 22.04 58.22 21.49C57.69 21.27 57.11 21.06 56.56 20.86C55.28 20.39 53.96 19.99 52.63 19.62C52.37 19.54 49.67 18.79 49.57 18.79L48.84 18.63C48.21 18.49 47.24 17.7 47.51 16.34L49.3 8.71C49.54 8.56 49.89 8.32 50.19 8.02L52.48 9.01C52.94 9.2 68.16 15.72 68.33 15.79C68.6 15.9 68.86 16.01 69.14 16.15L69.34 16.24C69.47 16.3 69.6 16.36 69.77 16.41C70.02 16.5 70.36 16.63 70.77 16.66C71.06 16.66 71.3 16.6 71.53 16.54C72 16.39 72.44 16.11 72.86 15.69C73.26 15.29 73.58 14.84 73.83 14.31C74.26 13.41 74.41 12.56 74.31 11.79L74.3 11.81ZM11.09 83.62C10.97 83.84 10.68 83.93 10.45 83.82C10.22 83.71 10.11 83.43 10.19 83.18L18.73 56.78L5.01997 55.46C4.82997 55.44 4.66997 55.31 4.59997 55.13C4.54997 54.95 4.57997 54.74 4.70997 54.6L21.53 35.2C21.69 35.02 21.97 34.98 22.17 35.13C22.38 35.26 22.45 35.53 22.37 35.77L17.24 47.81C17.16 48 17.3 48.21 17.5 48.21H31.26C31.44 48.21 31.6 48.3 31.68 48.47C31.77 48.64 31.77 48.84 31.68 48.98L11.11 83.63L11.09 83.62ZM37.38 90.01C37.36 90.48 36.94 90.84 36.39 90.84C32.82 90.95 27.27 90.73 22.16 89.54C21.81 89.46 21.87 88.95 22.23 88.93C37.9 88.03 33.34 55.46 36.65 37.08C39.87 19.09 37.66 82.14 37.37 90.01H37.38ZM50.38 24.65C51.8 24.36 53.25 24.2 54.7 24.12C56.84 24 56.96 23.94 56.57 24.32C56.28 24.61 55.65 24.75 55.28 24.9C54.71 25.12 54.12 25.33 53.54 25.53C50.94 26.43 48.31 27.24 45.67 28.03C43.73 28.61 41.8 29.21 39.84 29.68C39.55 29.75 39.25 29.81 38.95 29.85C37.53 30.04 36.13 29.84 34.74 29.57C32.78 29.19 30.84 28.77 28.9 28.3C23.55 27 18.23 25.58 12.92 24.11C7.53997 22.57 6.63997 21.65 13.33 22.61C13.57 22.64 13.77 22.66 13.99 22.68C17.59 23.23 21.22 23.71 24.8 24.27C30.13 25.11 35.6 26.26 41.01 25.97C44.16 25.8 47.29 25.27 50.38 24.65Z" fill="black"/>
<path d="M192.33 35.3H182.62V83.49H192.33V35.3Z" fill="black"/>
<path d="M187.43 17.36C185.55 17.36 183.99 17.95 182.79 19.11C181.57 20.28 180.96 21.84 180.96 23.73C180.96 25.62 181.57 27.18 182.77 28.38C183.97 29.58 185.54 30.19 187.43 30.19C189.32 30.19 190.88 29.59 192.12 28.39C193.36 27.18 193.99 25.61 193.99 23.72C193.99 21.83 193.35 20.26 192.1 19.08C190.87 17.93 189.3 17.35 187.43 17.35V17.36Z" fill="black"/>
<path d="M239.36 64.34C238.82 67.84 237.14 70.72 234.37 72.89C231.56 75.1 228.22 76.22 224.44 76.22C221.42 76.22 218.69 75.52 216.32 74.13C213.96 72.75 212.09 70.77 210.76 68.24C209.41 65.68 208.72 62.72 208.72 59.44C208.72 56.16 209.37 53.18 210.64 50.61C211.89 48.08 213.62 46.1 215.78 44.72C217.93 43.35 220.39 42.66 223.09 42.66C226.11 42.66 228.82 43.56 231.16 45.33C233.5 47.1 235.09 49.47 235.9 52.37L236.27 53.69L245.69 51.53L245.34 50.11C244.13 45.19 241.44 41.15 237.35 38.09C233.28 35.04 228.48 33.49 223.1 33.49C218.48 33.49 214.29 34.62 210.63 36.84C206.98 39.06 204.09 42.18 202.06 46.11C200.05 50.01 199.03 54.48 199.03 59.42C199.03 64.36 200.12 68.85 202.26 72.72C204.42 76.62 207.47 79.71 211.34 81.93C215.2 84.14 219.61 85.26 224.45 85.26C228.48 85.26 232.28 84.43 235.75 82.79C239.22 81.15 242.16 78.86 244.48 75.97C246.81 73.06 248.29 69.74 248.87 66.1L249.08 64.74L239.6 62.82L239.37 64.31L239.36 64.34Z" fill="black"/>
<path d="M293.66 68.38C292.48 70.63 290.58 72.52 288.02 73.99C285.44 75.47 282.51 76.22 279.31 76.22C274.85 76.22 271.03 74.85 267.96 72.14C265.29 69.78 263.59 66.75 262.92 63.13H300.74L300.87 61.83C300.93 61.18 300.97 60.23 300.97 58.98C300.91 54.11 299.89 49.72 297.94 45.91C295.97 42.07 293.18 39.01 289.65 36.82C286.11 34.62 281.97 33.51 277.35 33.51C272.73 33.51 268.41 34.62 264.68 36.8C260.94 38.99 257.97 42.04 255.88 45.88C253.8 49.7 252.74 54.08 252.74 58.91C252.74 63.74 253.89 68.4 256.16 72.41C258.43 76.42 261.64 79.61 265.69 81.88C269.72 84.15 274.28 85.29 279.24 85.29C284.5 85.29 289.28 84.06 293.44 81.64C297.65 79.19 300.61 75.95 302.22 72.01L302.77 70.68L294.29 67.22L293.68 68.38H293.66ZM277.24 42.67C281.03 42.67 284.18 43.82 286.58 46.09C288.68 48.08 290.04 50.82 290.6 54.24H263.08C263.85 51.03 265.37 48.35 267.61 46.28C270.2 43.89 273.43 42.67 277.23 42.67H277.24Z" fill="black"/>
<path d="M410.77 45.88C408.64 41.98 405.6 38.9 401.72 36.74C397.86 34.59 393.33 33.51 388.26 33.51C383.19 33.51 378.75 34.6 374.89 36.74C371.01 38.9 367.97 41.97 365.84 45.88C363.73 49.75 362.65 54.32 362.65 59.44C362.65 64.56 363.72 69.04 365.83 72.91C367.96 76.82 371.01 79.89 374.88 82.05C378.73 84.2 383.23 85.28 388.25 85.28C393.27 85.28 397.85 84.19 401.71 82.05C405.58 79.89 408.63 76.82 410.76 72.91C412.87 69.04 413.94 64.5 413.94 59.44C413.94 54.38 412.87 49.75 410.76 45.88H410.77ZM388.26 76.22C383.43 76.22 379.53 74.7 376.68 71.69C373.81 68.66 372.36 64.54 372.36 59.44C372.36 54.34 373.82 50.22 376.68 47.19C379.53 44.18 383.42 42.66 388.26 42.66C393.1 42.66 396.99 44.18 399.83 47.19C402.7 50.22 404.15 54.34 404.15 59.44C404.15 64.54 402.69 68.66 399.83 71.69C396.98 74.7 393.09 76.22 388.26 76.22Z" fill="black"/>
<path d="M442.22 58.6301L459.13 35.3L447.57 35.43L436.18 51.89L424.49 35.3H413.16L430.07 58.48L412.29 83.49L423.92 83.3701L436.18 65.42L448.51 83.49H460L442.22 58.6301Z" fill="black"/>
<path d="M111.83 61.12C111.83 64.54 111.46 69.5 108.29 73.06C105.95 75.68 102.77 76.96 98.5801 76.96C94.6601 76.96 91.6601 75.84 88.8501 73.34C87.9301 72.52 87.1201 71.55 86.4501 70.46C85.7901 69.39 85.22 68.15 84.7701 66.78C84.46 65.82 84.2301 65.02 84.0801 64.25C83.9601 63.66 83.8801 63.06 83.8101 62.46L83.7101 61.74L74.4301 65.68L74.6501 66.7C75.9401 72.91 78.7701 77.8 83.0501 81.23C87.3801 84.7 92.5901 86.38 98.9701 86.38C106.18 86.38 111.91 84.23 116.02 80C120.11 75.78 122.19 69.93 122.19 62.63V17.36H111.85V61.12H111.83Z" fill="black"/>
<path d="M163.98 35.3V62.3101C163.98 65.0901 163.36 67.59 162.15 69.7201C160.94 71.84 159.25 73.5201 157.13 74.6901C154.99 75.8801 152.52 76.4801 149.79 76.4801C146.58 76.4801 144.12 75.51 142.27 73.53C140.41 71.55 139.47 68.77 139.47 65.27V35.3H129.67V65.99C129.67 71.91 131.31 76.6501 134.55 80.0801C137.81 83.5301 142.31 85.2901 147.9 85.2901C149.75 85.2901 151.61 85.1601 153.42 84.8001C155.23 84.4401 156.95 83.9201 158.36 82.7901C159.91 81.5601 161.25 80.03 162.31 78.34C163.37 76.65 164 74.79 164.66 72.92L166.45 73.4401C164.85 77.8601 163.9 83.5101 163.9 83.5101H173.69V35.32H163.98V35.3Z" fill="black"/>
<path d="M355.13 46.2C353.01 42.28 350.07 39.16 346.4 36.91C342.71 34.66 338.5 33.51 333.88 33.51C328.52 33.51 322.88 35.12 319.85 39.85C318.58 41.83 317.72 43.9 316.96 46.12L315.17 45.59C316.17 42.8 316.92 39.51 317.33 37.47C317.52 36.51 317.62 35.54 317.62 34.56V17.36H307.91V83.49H317.69C317.62 83.07 316.68 77.7 315.17 73.47L316.96 72.94C316.88 72.96 318.39 76.7 318.56 77.03C319.54 79.01 320.95 80.78 322.67 82.18C324.4 83.58 326.58 84.32 328.73 84.75C333.94 85.81 339.51 85.28 344.34 83.01C345.02 82.69 345.69 82.33 346.33 81.95C350.04 79.73 353 76.6 355.12 72.65C357.23 68.72 358.3 64.28 358.3 59.45C358.3 54.62 357.23 50.11 355.12 46.2H355.13ZM346.48 68.06C345.14 70.6 343.27 72.62 340.94 74.06C338.61 75.5 335.93 76.22 332.98 76.22C330.03 76.22 327.36 75.48 325.03 74.02C322.69 72.55 320.82 70.52 319.47 67.97C318.12 65.41 317.43 62.54 317.43 59.44C317.43 56.34 318.12 53.38 319.47 50.82C320.81 48.28 322.68 46.26 325.01 44.82C327.34 43.38 330.02 42.66 332.97 42.66C335.92 42.66 338.59 43.39 340.93 44.82C343.27 46.26 345.14 48.28 346.47 50.82C347.82 53.38 348.51 56.28 348.51 59.44C348.51 62.6 347.82 65.49 346.47 68.06H346.48Z" fill="black"/>
</g>
<defs>
<clipPath id="clip0_90_10715">
<rect width="460" height="104" fill="white"/>
</clipPath>
</defs>
</svg>
